<svg xmlns="http://www.w3.org/2000/svg" viewBox="0 0 356 933" width="356" height="933">
	<style>
		tspan { white-space:pre }
		.shp0 { fill: #050505 } 
		.shp1 { fill: #f23838 } 
		.shp2 { fill: #e23434 } 
		.shp3 { fill: #a31111 } 
		.shp4 { fill: #9a0505 } 
		.shp5 { fill: #940505 } 
		.shp6 { fill: #900505 } 
		.shp7 { fill: #950505 } 
		.shp8 { fill: #930505 } 
		.shp9 { fill: #910505 } 
		.shp10 { fill: #8f0505 } 
		.shp11 { fill: #920505 } 
		.shp12 { fill: #8b0505 } 
		.shp13 { fill: #8e0505 } 
		.shp14 { fill: #afafaf;stroke: #000000 } 
		.shp15 { fill: #656565 } 
		.shp16 { fill: #fafafa;stroke: #000000 } 
		.shp17 { fill: #4ff905;stroke: #000000 } 
		.shp18 { fill: #f90505;stroke: #000000 } 
		.shp19 { fill: #f9f905;stroke: #000000 } 
		.shp20 { fill: #101010 } 
		.shp21 { fill: #a5fa6d } 
		.shp22 { fill: #fa7373 } 
		.shp23 { fill: #fafa8f } 
		.shp24 { fill: #fa0505;stroke: #000000 } 
		.shp25 { fill: #f00505;stroke: #000000 } 
		.shp26 { fill: #f40505;stroke: #000000 } 
		.shp27 { fill: #05fafa;stroke: #000000 } 
		.shp28 { fill: #9afacf } 
	</style>
	<path class="shp0" d="M1 26C1.3 25.6 1.7 25.3 1.8 24.9C2.43 21.75 3.54 18.72 5.09 15.9C6.64 13.09 8.62 10.54 10.95 8.33C13.28 6.12 15.94 4.29 18.84 2.89C21.73 1.49 24.82 0.55 28 0.1C34.6 -1.2 41.5 -1.9 48.3 -1.9L387.3 -2C393.7 -2 399.7 -0.4 406.1 1.8L406.1 44L410.3 44C429.6 44 449 44 468.3 44.2C484.4 44.3 499.5 48.3 513.6 56C517.28 58.11 520.91 60.3 524.49 62.56C528.07 64.83 531.6 67.17 535.08 69.59C538.56 72.01 541.99 74.51 545.36 77.08C548.73 79.65 552.04 82.29 555.3 85C565.4 92.9 575.1 101.2 586.6 107.1C590.88 109.4 595.29 111.44 599.82 113.2C604.34 114.97 608.97 116.46 613.68 117.66C618.38 118.86 623.16 119.78 627.98 120.41C632.79 121.03 637.64 121.36 642.5 121.4C675 121.4 707.5 121.2 739.9 121L745.7 121L745.9 126.9L745.9 233.4L745.8 491.8C745.78 493.34 745.73 494.87 745.64 496.41C745.55 497.94 745.42 499.47 745.25 501C745.08 502.53 744.88 504.05 744.64 505.57C744.39 507.08 744.12 508.6 743.8 510.1C743.36 512.65 742.48 515.11 741.2 517.36C739.93 519.61 738.27 521.63 736.3 523.31C734.34 525 732.09 526.33 729.67 527.25C727.25 528.16 724.69 528.66 722.1 528.7C719.1 528.8 716.1 529.1 713.1 529.1L405.4 529.1C404.7 533.4 401.5 535.1 397.9 536.1C394.9 537 391.8 537.5 388.7 538.2C388.3 538.3 388.1 538.8 387.8 539.1L22.8 539.1C8.9 536 2.5 526.5 0.8 513.1C1 350.7 1 188.3 1 26Z" />
	<path class="shp0" d="M-371 435C-370.7 434.6 -370.3 434.3 -370.2 433.9C-369.57 430.75 -368.46 427.72 -366.91 424.9C-365.36 422.09 -363.38 419.54 -361.05 417.33C-358.72 415.12 -356.06 413.29 -353.16 411.89C-350.27 410.49 -347.18 409.55 -344 409.1C-337.4 407.8 -330.5 407.1 -323.7 407.1L15.3 407C21.7 407 27.7 408.6 34.1 410.8L34.1 453L38.3 453C57.6 453 77 453 96.3 453.2C112.4 453.3 127.5 457.3 141.6 465C145.28 467.11 148.91 469.3 152.49 471.56C156.07 473.83 159.6 476.17 163.08 478.59C166.56 481.01 169.99 483.51 173.36 486.08C176.73 488.65 180.04 491.29 183.3 494C193.4 501.9 203.1 510.2 214.6 516.1C218.88 518.4 223.29 520.44 227.82 522.2C232.34 523.97 236.97 525.46 241.68 526.66C246.38 527.86 251.16 528.78 255.98 529.41C260.79 530.03 265.64 530.36 270.5 530.4C303 530.4 335.5 530.2 367.9 530L373.7 530L373.9 535.9L373.9 642.4L373.8 900.8C373.78 902.34 373.73 903.87 373.64 905.41C373.55 906.94 373.42 908.47 373.25 910C373.08 911.53 372.88 913.05 372.64 914.57C372.39 916.08 372.12 917.6 371.8 919.1C371.36 921.65 370.48 924.11 369.2 926.36C367.93 928.61 366.27 930.63 364.3 932.31C362.34 934 360.09 935.33 357.67 936.25C355.25 937.16 352.69 937.66 350.1 937.7C347.1 937.8 344.1 938.1 341.1 938.1L33.4 938.1C32.7 942.4 29.5 944.1 25.9 945.1C22.9 946 19.8 946.5 16.7 947.2C16.3 947.3 16.1 947.8 15.8 948.1L-349.2 948.1C-363.1 945 -369.5 935.5 -371.2 922.1C-371 759.7 -371 597.3 -371 435Z" />
	<path class="shp1" d="M6.9 404.5L6.9 425.9C3.3 424.5 0 422.7 -3.4 422.1C-8.9 421.2 -14.6 420.9 -20.2 420.9C-45.2 420.8 -70.2 420.8 -95.2 421C-103.3 421.1 -111.4 421.7 -119.5 422.8C-122.6 423.31 -125.68 423.98 -128.72 424.79C-131.76 425.61 -134.75 426.57 -137.7 427.68C-140.64 428.79 -143.53 430.04 -146.35 431.43C-149.17 432.82 -151.93 434.34 -154.6 436C-157.88 438.05 -161.12 440.16 -164.33 442.31C-167.55 444.46 -170.73 446.66 -173.87 448.92C-177.01 451.17 -180.12 453.47 -183.19 455.81C-186.27 458.16 -189.3 460.56 -192.3 463C-201.6 470.3 -210.7 477.8 -221.1 483.4C-228.7 487.5 -236.6 491 -245 493.2C-246.8 493.7 -248.9 493.3 -250.4 494.2C-252.2 495.1 -253.7 496.5 -255.8 495.1C-258.1 498.5 -261.8 495.6 -264.7 497.3C-266.6 498.4 -269.3 498.1 -271.7 498.1L-284.8 498.3L-298.3 498.1L-366.3 498.1C-367.6 498.1 -369 498.2 -370.3 498C-373.7 497.6 -375 496.3 -375 492.9C-375 470.4 -375.4 447.9 -374.9 425.4C-374.6 413.5 -368.5 404.8 -355 402C-354.27 401.85 -353.53 401.72 -352.8 401.61C-352.06 401.49 -351.32 401.4 -350.57 401.32C-349.83 401.25 -349.09 401.19 -348.34 401.15C-347.59 401.12 -346.85 401.1 -346.1 401.1L-11.6 401C-5.3 401 0.8 402.2 6.9 404.5ZM9.2 928L9.2 447.2L12.7 447C32.9 447 53 446.7 73.2 447.2C89.7 447.6 105 452.8 119.4 460.8C133.1 468.5 145.4 478.1 157.5 487.9C169.4 497.5 181.4 506.9 195.5 513.2C200.15 515.28 204.92 517.09 209.78 518.62C214.64 520.16 219.58 521.4 224.59 522.36C229.59 523.32 234.65 523.99 239.73 524.36C244.81 524.74 249.91 524.82 255 524.6C284.8 523 314.6 524.3 344.4 523.9L346.7 524L346.9 528.4C346.9 650.1 347 771.7 346.8 893.4C346.8 900.3 346.4 907.4 343.8 913.9C340.6 921.8 335.2 926.8 326.3 927.1C320.5 927.3 314.7 927.8 308.9 927.8L15.4 927.8C13.5 928 11.6 928 9.2 928L9.2 928Z" />
	<path class="shp1" d="M344 517L53.1 517C49.4 517 45.8 516.9 42.1 517.3C33.8 518.1 28.1 511.8 27.1 503.9C26.8 501.9 26.9 499.9 26.9 497.9L27.1 491.4L27.1 135L26.9 124.5C26.9 122.2 26.9 119.8 27.4 117.6C28.2 114.1 29.8 113.1 33.5 113L44.5 113C69.2 113 93.8 112.9 118.5 113.2C134.3 113.3 149.4 109.8 164 104.1C167.55 102.6 171.03 100.96 174.45 99.19C177.87 97.41 181.21 95.5 184.48 93.46C187.74 91.42 190.92 89.25 194.01 86.95C197.1 84.65 200.1 82.24 203 79.7C206.65 76.62 210.34 73.6 214.09 70.63C217.83 67.67 221.62 64.76 225.46 61.92C229.3 59.08 233.18 56.29 237.1 53.57C241.02 50.85 244.99 48.19 249 45.6C255 41.8 261.3 38.3 268.4 36.8C270 36.5 271.6 36.1 273.3 36.1L337.3 36.1C342.8 36.1 345.6 38.6 346.2 44C346.4 45.8 346.3 47.7 346.3 49.5L346.1 211.5C345.9 279.5 345.5 347.4 345.2 415.4L345.1 462.4C345 479.9 344.7 497.3 344.4 514.8C344.2 515.2 344.1 515.9 344 517Z" />
	<path class="shp2" d="M404 475.6C393.9 468.1 369.3 467.9 357 474.5L357 469.4L356.9 86C356.9 81.8 358.1 79.3 362 78.1C364.8 77.2 367.7 76.2 370.6 76C376.9 75.7 383.2 75.9 389.6 75.9C393.7 75.9 397.3 77.8 400.8 79.7C403.3 81.1 403.6 83.6 404.1 86C404.3 87.1 404.1 88.3 404.1 89.5L404.1 469.9L404 475.6L404 475.6Z" />
	<path class="shp1" d="M403.9 3.5L403.9 24.9C400.3 23.5 397 21.7 393.6 21.1C388.1 20.2 382.4 19.9 376.8 19.9C351.8 19.8 326.8 19.8 301.8 20C293.7 20.1 285.6 20.7 277.5 21.8C274.4 22.31 271.32 22.98 268.28 23.79C265.24 24.61 262.25 25.57 259.3 26.68C256.36 27.79 253.47 29.04 250.65 30.43C247.83 31.82 245.07 33.34 242.4 35C239.12 37.05 235.88 39.16 232.67 41.31C229.45 43.46 226.27 45.66 223.13 47.92C219.99 50.17 216.88 52.47 213.81 54.81C210.73 57.16 207.7 59.56 204.7 62C195.4 69.3 186.3 76.8 175.9 82.4C168.3 86.5 160.4 90 152 92.2C150.2 92.7 148.1 92.3 146.6 93.2C144.8 94.1 143.3 95.5 141.2 94.1C138.9 97.5 135.2 94.6 132.3 96.3C130.4 97.4 127.7 97.1 125.3 97.1L112.2 97.3L98.7 97.1L30.7 97.1C29.4 97.1 28 97.2 26.7 97C23.3 96.6 22 95.3 22 91.9C22 69.4 21.6 46.9 22.1 24.4C22.4 12.5 28.5 3.8 42 1C42.73 0.85 43.47 0.72 44.2 0.61C44.94 0.49 45.68 0.4 46.43 0.32C47.17 0.25 47.91 0.19 48.66 0.15C49.41 0.12 50.15 0.1 50.9 0.1L385.4 0C391.7 0 397.8 1.2 403.9 3.5ZM406.2 527L406.2 46.2L409.7 46C429.9 46 450 45.7 470.2 46.2C486.7 46.6 502 51.8 516.4 59.8C530.1 67.5 542.4 77.1 554.5 86.9C566.4 96.5 578.4 105.9 592.5 112.2C597.15 114.28 601.92 116.09 606.78 117.62C611.64 119.16 616.58 120.4 621.59 121.36C626.59 122.32 631.65 122.99 636.73 123.36C641.81 123.74 646.91 123.82 652 123.6C681.8 122 711.6 123.3 741.4 122.9L743.7 123L743.9 127.4C743.9 249.1 744 370.7 743.8 492.4C743.8 499.3 743.4 506.4 740.8 512.9C737.6 520.8 732.2 525.8 723.3 526.1C717.5 526.3 711.7 526.8 705.9 526.8L412.4 526.8C410.5 527 408.6 527 406.2 527L406.2 527Z" />
	<path class="shp1" d="M345 36.1L355 36.1L355 527.9L350 528.1C290.2 528 230.3 528.1 170.5 527.9C127 527.8 83.6 527.3 40.1 527.1C33.7 527.1 28.1 525 24 520.4C21 517.1 18.7 512.9 18.1 508.2C17.5 503.4 17 498.6 17 493.8L17 117.8L17 113.2L26.8 113.2C24.8 117.7 23.4 122.2 24.9 127.2C25.3 128.4 25 129.8 25 131.2L25 492.7C25 496.5 24.7 500.3 25.1 504C26.2 514.9 34.4 520.7 45.3 519.7C47.6 519.5 49.9 519.1 52.2 519.1L346.6 519.1L346.8 514.6L347 413.6L347.1 288.1L348 83.7C348 72.2 348 60.7 348.2 49.2C348.2 44.6 347.9 40.2 345 36.1L345 36.1Z" />
	<path class="shp3" d="M6.4 521.2C5.87 520.07 5.4 518.91 4.98 517.72C4.57 516.54 4.22 515.34 3.92 514.13C3.63 512.91 3.4 511.68 3.22 510.44C3.05 509.2 2.95 507.95 2.9 506.7L2.9 494.2L2.9 44.2C2.9 40.4 2.7 36.5 2.8 32.7C2.7 29.67 3.07 26.64 3.89 23.72C4.71 20.8 5.97 18.02 7.64 15.49C9.3 12.95 11.34 10.69 13.7 8.77C16.05 6.86 18.68 5.32 21.5 4.2C25.2 2.6 29.3 1.9 33.4 1.1C32.11 1.82 30.89 2.65 29.75 3.58C28.6 4.52 27.55 5.55 26.6 6.68C25.64 7.8 24.79 9.01 24.05 10.29C23.32 11.57 22.7 12.91 22.2 14.3C21.88 15.1 21.6 15.91 21.35 16.73C21.1 17.55 20.88 18.37 20.7 19.21C20.51 20.05 20.36 20.89 20.25 21.74C20.13 22.59 20.05 23.44 20 24.3C19.8 47 19.9 69.6 19.9 92.3L20.2 96.4C16.1 97.7 14.8 100.9 14.8 105.4C15 145.7 15 185.8 15 226L15 488C15 503.4 15 503.4 8.2 517.4L6.4 521.2L6.4 521.2Z" />
	<path class="shp4" d="M362.7 536.8L38.5 536.8L42.5 529L47.6 529C84.1 529 120.6 528.4 157.1 529.2C221.4 530.6 285.7 529.5 350 530C352.3 530 354 530.4 355.7 532.2C357.8 534.1 360.5 535.4 362.7 536.8L362.7 536.8Z" />
	<path class="shp2" d="M404 58.4C400.36 56.64 396.54 55.28 392.6 54.34C388.67 53.4 384.64 52.89 380.6 52.81C376.55 52.73 372.51 53.09 368.55 53.88C364.58 54.67 360.71 55.88 357 57.5C357 48.1 356.9 38.7 357.1 29.2C357.1 28.2 358.1 26.6 359.1 26.2C362.7 24.6 366.4 22.5 370.2 22.3C377.8 21.8 385.5 20.9 393 23C395.7 23.7 398.3 24.9 400.8 26.2C403.2 27.5 404.1 29.9 404.1 32.5L404 58.4L404 58.4ZM404 524.6C400.33 523.01 396.52 521.79 392.62 520.93C388.72 520.08 384.74 519.61 380.75 519.53C376.75 519.44 372.76 519.74 368.83 520.43C364.89 521.11 361.03 522.17 357.3 523.6C357.2 522.9 357 521.8 357 520.8C357 514.5 357.2 508.1 356.9 501.8C356.8 498.6 358.1 497.1 360.7 495.7C361.67 495.23 362.65 494.81 363.66 494.43C364.67 494.06 365.7 493.74 366.74 493.47C367.78 493.2 368.83 492.99 369.89 492.83C370.96 492.66 372.03 492.55 373.1 492.5C382.1 491.6 391 491.8 399.3 496C400.01 496.32 400.67 496.74 401.26 497.26C401.84 497.77 402.35 498.37 402.76 499.04C403.17 499.7 403.47 500.43 403.67 501.18C403.86 501.94 403.94 502.72 403.9 503.5L404 524.6Z" />
	<path class="shp4" d="M17 110.8L17 103C17.1 100.7 18.5 99.4 20.8 99.1L22.8 99L103.7 99L106.9 99.2C106.6 103.7 104.4 107.1 102.5 110.8L17 110.8ZM137 109C138.4 105.2 139.8 101.3 141.4 97.6C141.6 97.2 142.8 97.2 144.4 96.8L140.6 107.2C143.9 105.8 144.8 103 145.6 100.4C146.7 96.8 148.7 95.2 152.3 94.2C156.3 93.05 160.24 91.7 164.1 90.15C167.97 88.61 171.75 86.87 175.45 84.95C179.14 83.03 182.73 80.93 186.21 78.65C189.7 76.37 193.06 73.91 196.3 71.3C208.6 61.6 221.2 52.3 233.7 42.8C234.2 42.4 234.8 42.2 236.2 41.5L235 46.3C234.64 47.63 234.17 48.93 233.57 50.18C232.98 51.42 232.27 52.61 231.46 53.73C230.65 54.85 229.74 55.89 228.74 56.84C227.74 57.79 226.66 58.65 225.5 59.4C215.5 66.4 206 74.2 196.5 81.9C192.94 84.91 189.21 87.71 185.33 90.29C181.45 92.87 177.42 95.22 173.27 97.34C169.11 99.45 164.84 101.31 160.46 102.93C156.09 104.54 151.63 105.9 147.1 107L138 108.9C137.7 109.4 137.4 109.4 137 109L137 109ZM271.9 33.7L275.5 24L285.9 22.9C309.3 21.3 332.7 22.1 356.2 21.9L361.9 21.9C360.1 23 358.8 23.6 357.7 24.6C356.4 25.8 354.9 27.1 354.4 28.6C354 29.9 354.9 31.7 355.2 33.6L271.9 33.7Z" />
	<path class="shp2" d="M389.8 472.2L389.8 490.7C387.04 490.18 384.25 489.88 381.44 489.8C378.63 489.73 375.83 489.87 373.04 490.25C370.26 490.62 367.51 491.22 364.83 492.03C362.14 492.84 359.52 493.87 357 495.1L357 479.3C357 477.5 357.8 476.5 359.4 476C363 474.8 366.5 473.2 370.1 472.5C376.5 471.4 382.9 472 389.8 472.2L389.8 472.2ZM357.1 77.9L357.1 60.5C367.3 54 378.3 54.6 389.7 55.7L389.7 73.8C386.96 73.34 384.19 73.08 381.41 73.02C378.63 72.96 375.86 73.11 373.1 73.45C370.34 73.8 367.61 74.35 364.94 75.09C362.26 75.84 359.64 76.77 357.1 77.9L357.1 77.9Z" />
	<path class="shp4" d="M380.3 521.5C384.9 522 389.5 522.2 394 523.1C396.5 523.6 399 524.9 401.2 526.2C403.6 527.6 403.7 530.1 401.4 531.9C400.4 532.7 399.2 533.4 398 533.8C395.25 534.79 392.42 535.56 389.54 536.1C386.66 536.64 383.74 536.95 380.82 537.01C377.89 537.08 374.96 536.91 372.06 536.51C369.16 536.1 366.3 535.47 363.5 534.6C361.8 534.1 360.1 533.2 358.7 532.2C356 530.3 356.3 527.7 359.2 525.9C360.26 525.26 361.36 524.69 362.49 524.21C363.62 523.72 364.79 523.31 365.98 522.98C367.17 522.65 368.38 522.4 369.61 522.24C370.83 522.07 372.06 521.99 373.3 522L380.3 522L380.3 521.5L380.3 521.5Z" />
	<path class="shp2" d="M392.2 74.3L392.2 56L396.9 57.3L396.9 75L392.2 74.3ZM392.2 490.9L392.2 472.8L396.8 474.2L396.8 492.3L392.2 490.9ZM404 79.2L399.3 76.5L399.3 58.8C402.8 60.3 403.9 62.9 404 66L404 79.2ZM404 496.1L399.3 493.5L399.3 475.8C403 477.1 403.9 479.9 404 482.9L404 496.1Z" />
	<path class="shp5" d="M15.4 507.1C17.4 510.6 16.7 513.5 15.2 516.4C13.5 519.8 12 523.5 10.2 527.7L7.5 524.2L15.4 507.1L15.4 507.1Z" />
	<path class="shp6" d="M235.2 51.7C236.7 47.7 238 43.5 239.9 39.7C240.7 38.2 242.7 37.3 244.9 36.5C243.5 40.4 242.5 44.5 240.7 48.2C239.9 49.9 237.6 50.9 236 52.1L235.2 51.7Z" />
	<path class="shp7" d="M109.6 110.9L105.7 110.9C105.7 110.5 105.5 110.2 105.6 109.9L108.9 102.2C109.7 100.3 110.8 98.7 113.7 99.2C113.5 103.5 110.5 106.7 109.6 110.9L109.6 110.9Z" />
	<path class="shp8" d="M13.6 531.2C13.1 530.3 12 529.2 12.2 528.7C13.9 524.5 15.9 520.4 18.3 516.5C20.9 522.3 16 526.1 14.8 530.9L13.6 531.2L13.6 531.2Z" />
	<path class="shp7" d="M112 110.2L115.9 101.2C116.7 99.3 117.8 98.7 120.3 99.7C118.8 103.2 117.5 106.7 115.8 110C115.4 110.8 113.7 110.9 112.6 111.3C112.57 111.2 112.53 111.1 112.49 111C112.45 110.91 112.41 110.81 112.36 110.72C112.31 110.63 112.25 110.54 112.19 110.45C112.13 110.36 112.07 110.28 112 110.2L112 110.2Z" />
	<path class="shp9" d="M137 109L138 109C134.9 110.2 134.9 110.2 130.6 109.4C132.1 105.9 133.4 102.4 135.1 99.1C135.5 98.3 137.2 98.2 138.8 97.6L135 106.6C134.5 108.2 135.2 109.1 137 109L137 109Z" />
	<path class="shp8" d="M117.9 111.7C123.2 99.4 123.2 99.4 126.6 99.7C125 103.3 123.7 106.7 122 110C121.5 110.8 119.9 110.9 117.9 111.7Z" />
	<path class="shp9" d="M16.2 532.8L21.3 521.9C23 522.6 24.2 523.1 23.5 524.9L20.2 532.6C19.2 534.9 17.9 534.3 16.2 532.8L16.2 532.8Z" />
	<path class="shp5" d="M127.9 110.8L124.3 110.8L128.8 100.6C129.3 99.4 129.4 99.4 132.3 99.4L127.9 110.8Z" />
	<path class="shp10" d="M244 45.4L247.5 35.9C248.2 34 249.6 33.3 252.2 33C249.8 37.9 249.5 43.2 244.9 46L244 45.4Z" />
	<path class="shp6" d="M265.7 27.5C264.4 31.6 264 36.4 257.7 38.3C260.7 34.1 259.8 28.5 265.7 27.5Z" />
	<path class="shp7" d="M25.9 537.4C27.5 534.1 28.6 531.7 29.9 529.4C30.3 528.8 31.4 528.6 32.1 528.2C32.4 528.9 33.1 529.7 32.9 530.3C32.1 532.4 31.2 534.6 29.9 536.5C29.5 537 28 536.9 25.9 537.4Z" />
	<path class="shp11" d="M252.3 40.9C251.7 37.8 254 35.7 254.6 33.1C254.8 32.1 255.7 31.2 256.5 30.4C256.9 30 257.7 30.1 258.4 30C256.9 37.1 255.9 39 252.3 40.9L252.3 40.9Z" />
	<path class="shp12" d="M265.9 34.5C267.8 31.1 267.3 26.4 272.4 24.7C270.7 33.5 270 34.6 265.9 34.5Z" />
	<path class="shp13" d="M21.5 535.3L25 527.1C25.3 526.6 26.2 526.3 26.8 526C27.1 526.8 27.8 527.7 27.6 528.4C26.9 530.6 26 532.7 24.8 534.7C24.3 535.5 22.9 535.8 21.9 536.3L21.5 535.3L21.5 535.3Z" />
	<path class="shp6" d="M40.3 528.7C37.7 532.2 37.7 536.5 33.3 538C33.1 534.6 34.3 532 36 529.7C36.6 529 38.3 529.2 40.3 528.7Z" />
	<path class="shp14" d="M184.3 128L317.8 128C325.6 128 329.8 132 330 139.8L330 357.2L329.9 362.2C329.86 363.62 329.55 365.02 328.98 366.32C328.41 367.62 327.59 368.8 326.57 369.78C325.56 370.77 324.36 371.56 323.04 372.09C321.73 372.63 320.32 372.9 318.9 372.9L314.4 373L88.5 373.1C85.1 373.1 82.7 372.3 80.2 369.8C77.17 366.7 74.13 363.62 71.08 360.54C68.04 357.46 64.98 354.4 61.91 351.34C58.85 348.28 55.77 345.23 52.68 342.19C49.6 339.15 46.5 336.12 43.4 333.1C42.82 332.59 42.3 332.02 41.85 331.4C41.4 330.78 41.02 330.11 40.72 329.4C40.41 328.69 40.19 327.95 40.06 327.2C39.92 326.44 39.87 325.67 39.9 324.9L40 143.5L40 139C39.8 132 43.4 128.1 50.4 128.1L184.3 128L184.3 128Z" />
	<path class="shp15" d="M322.2 375C321.65 375.49 321.05 375.92 320.42 376.3C319.79 376.68 319.12 377 318.43 377.25C317.74 377.51 317.03 377.7 316.3 377.83C315.57 377.95 314.84 378.01 314.1 378L85.2 378C82.7 378 80.9 377.3 79.1 375.5C75.55 371.92 72.01 368.34 68.45 364.77C64.9 361.2 61.35 357.63 57.79 354.06C54.23 350.5 50.67 346.93 47.1 343.37C43.54 339.81 39.97 336.25 36.4 332.7C36.01 332.34 35.67 331.94 35.37 331.5C35.07 331.06 34.82 330.59 34.62 330.1C34.42 329.61 34.28 329.1 34.19 328.58C34.1 328.06 34.07 327.53 34.1 327L34.2 145C34.21 143.91 34.3 142.82 34.47 141.74C34.65 140.66 34.9 139.6 35.23 138.56C35.56 137.52 35.96 136.5 36.45 135.52C36.93 134.54 37.48 133.6 38.1 132.7L38.2 176.9L38.2 265.4C38.2 285.7 38.3 306.1 38.1 326.4C38.1 329.3 38.9 331.3 40.9 333.4C53.8 346.1 66.7 359 79.5 371.9C80 372.44 80.56 372.91 81.16 373.33C81.77 373.74 82.42 374.08 83.1 374.35C83.78 374.62 84.49 374.81 85.21 374.92C85.94 375.03 86.67 375.05 87.4 375L318.3 374.9L322.2 375Z" />
	<path class="shp16" d="M70.6 85.4C60.1 85.33 50.05 81.1 42.67 73.62C35.29 66.15 31.18 56.05 31.25 45.55C31.32 35.05 35.55 25 43.03 17.62C50.5 10.24 60.6 6.13 71.1 6.2C76.3 6.24 81.45 7.29 86.25 9.3C91.05 11.31 95.41 14.24 99.09 17.91C102.76 21.59 105.69 25.95 107.7 30.75C109.71 35.55 110.76 40.7 110.8 45.9C110.77 51.14 109.71 56.32 107.67 61.15C105.64 65.97 102.66 70.35 98.92 74.02C95.19 77.69 90.76 80.59 85.9 82.54C81.04 84.49 75.84 85.47 70.6 85.4L70.6 85.4Z" />
	<path class="shp17" d="M187.3 9.8C193.4 9.8 196.2 12.6 196.2 18.5C196.2 23.9 192.5 27.9 187.5 27.9C186.3 27.84 185.13 27.56 184.03 27.08C182.94 26.6 181.94 25.92 181.09 25.08C180.24 24.24 179.55 23.25 179.06 22.16C178.56 21.07 178.27 19.89 178.2 18.7C178 13.9 182.2 9.8 187.3 9.8L187.3 9.8Z" />
	<path class="shp18" d="M124.6 9.8C130.3 9.8 133.9 13 133.9 18.4C134 23.6 129.9 27.9 124.6 27.9C119.7 27.9 116 23.8 115.6 18.7C115.4 14.1 119.6 8.9 124.6 9.8L124.6 9.8Z" />
	<path class="shp19" d="M156 9.7C161.7 9.7 165.1 13 165.2 18.5C165.24 19.71 165.04 20.91 164.6 22.04C164.17 23.16 163.51 24.19 162.67 25.06C161.83 25.93 160.83 26.62 159.71 27.09C158.6 27.56 157.41 27.8 156.2 27.8C155 27.79 153.81 27.55 152.7 27.09C151.59 26.63 150.58 25.96 149.72 25.12C148.86 24.28 148.17 23.28 147.69 22.18C147.21 21.08 146.94 19.9 146.9 18.7C146.8 13.5 150.6 9.7 156 9.7L156 9.7Z" />
	<path class="shp20" d="M223.3 362.9C224.7 359.8 227 360.3 229.1 360.3L290.4 360.3C291.9 360.3 293.4 360.5 294.7 361C295.3 361.2 295.5 362.4 296.4 364L225 364C224.6 363.9 224 363.3 223.3 362.9L223.3 362.9Z" />
	<path class="shp0" d="M223.2 336.4C224.2 335.3 224.7 334.4 225.4 334.1C226.3 333.8 227.4 333.9 228.4 333.9L291.3 333.9C292.5 333.9 293.7 333.8 294.7 334.2C295.3 334.4 295.6 335.5 296.2 336.3C292.1 337.3 228.9 337.5 223.2 336.4L223.2 336.4ZM223.6 344.9C224.2 344.3 224.6 343.4 225.4 343.1C226.3 342.8 227.4 342.9 228.4 342.9L291.3 342.9C292.5 342.9 293.7 342.8 294.7 343.2C295.3 343.4 295.6 344.5 296.5 345.8L224.2 345.8L223.6 344.9L223.6 344.9ZM223.4 354.7C224.1 353.5 224.4 352.3 225.1 352.1C226.1 351.7 227.4 351.8 228.5 351.8L290.9 351.8C292.2 351.8 293.6 351.8 294.9 352.1C295.3 352.2 295.9 353.1 295.9 353.5C295.9 354 295.3 354.7 294.8 354.8C293.9 355 292.8 355 291.8 355L227.9 355C226.6 355.1 225.3 354.9 223.4 354.7L223.4 354.7Z" />
	<path class="shp21" d="M191.9 14.1C191.9 16 190.5 17 188.5 17C186.4 17 184.8 15.9 185.1 14.4C185.5 12.5 187.2 12.2 188.8 12C190.6 11.9 191.6 12.8 191.9 14.1L191.9 14.1Z" />
	<path class="shp22" d="M123.1 13.7C126.5 11.8 128.2 11.7 128.9 13.6C129.4 15.1 128.7 16.2 127.3 16.8C125.2 17.7 123.9 16.6 123.1 13.7L123.1 13.7Z" />
	<path class="shp23" d="M161.3 15C159.5 15.8 158.1 16.7 156.6 16.9C155.8 17 154.5 15.8 154.2 15C154 14.4 155.2 13.2 156 12.6C158.1 11.2 159.4 12.6 161.3 15L161.3 15Z" />
	<path class="shp24" d="M102.9 335.9C110.3 335.9 115.2 340.5 115.3 347.7C115.4 355.1 110.7 359.8 103.6 360.3C95.9 360.8 90.8 354.1 90.9 348.1C91.1 340.8 95.6 335.9 102.9 335.9L102.9 335.9Z" />
	<path class="shp25" d="M168.2 137.1C168.3 139.3 167.2 140.8 165.2 140.9C163.3 141.1 161.1 139.2 161.1 137.4C161.1 135.7 162.7 134.1 164.6 133.9C166.9 133.9 168.1 134.9 168.2 137.1Z" />
	<path class="shp26" d="M189 137.2C189.1 138.9 187.4 140.8 185.7 141C184 141.2 182.1 139.6 182 137.8C181.8 135.4 183 134.1 185.4 134C187.4 134 188.8 135.2 189 137.2Z" />
	<path class="shp27" d="M73.4 11.9C90.7 10.6 104.2 28.3 104.3 41.9C104.4 59.7 88.4 74.2 73.2 73.5C55.7 72.7 42.3 60 42.2 42.5C42.1 25.6 56.9 10.7 73.4 11.9Z" />
	<path class="shp28" d="M64.8 32.9C63.1 32.9 61.5 33.1 59.8 32.9C56.9 32.6 55.4 30.3 56.2 27.6C58.5 20 69.6 14.3 77.2 16.9C77.9 17.14 78.58 17.47 79.2 17.88C79.82 18.29 80.39 18.77 80.9 19.32C81.4 19.86 81.84 20.47 82.19 21.13C82.55 21.78 82.82 22.48 83 23.2C84 26.6 83 28.3 79.8 30.1C78.61 30.58 77.4 30.99 76.17 31.35C74.94 31.71 73.7 32.01 72.44 32.24C71.18 32.48 69.91 32.65 68.64 32.76C67.36 32.87 66.08 32.92 64.8 32.9L64.8 32.9Z" />
</svg>