<svg xmlns="http://www.w3.org/2000/svg" viewBox="0 0 960 560"><path fill="#FEFEFE" d="M71 34V5h745.9v542H458c.5-3 3.3-2.4 5.1-2.9 4.4-1.2 8.7-2.2 11.2-6.6.8-1.4 2.4-1.6 4-1.7l6.5-.1h301.4a31 31 0 0015-2.8c5.1-2.7 8.7-6.6 10.5-12.1 1.9-5.9 2.8-12 2.8-18.2V137.2c0-6.6-.2-6.7-6.7-6.7l-96.5.1a115 115 0 01-63.6-19.1c-15.3-9.8-28.6-22.3-43.4-32.7-13.8-9.7-28-18.7-44.7-22.5a91 91 0 00-20.2-2.8h-57c-6.9 0-8.2-.9-7.7-7.8.7-10-.6-19.9-.1-29.9.2-3.6-1.2-5.5-4.8-6.4-4.9-1.1-9.7-2-14.8-2H118.6c-8.9 0-17.6.7-26 3.7a29.7 29.7 0 00-18.5 18.3c-.6 1.7-.4 4.3-3.1 4.6z"/><path fill="#050505" d="M71 34c.3-.4.7-.7.8-1.1A31.2 31.2 0 0198 8.1c6.6-1.3 13.5-2 20.3-2l339-.1c6.4 0 12.4 1.6 18.8 3.8V52h4.2c19.3 0 38.7 0 58 .2 16.1.1 31.2 4.1 45.3 11.8a293 293 0 0141.7 29c10.1 7.9 19.8 16.2 31.3 22.1a120 120 0 0055.9 14.3c32.5 0 65-.2 97.4-.4h5.8l.2 5.9v106.5l-.1 258.4a94 94 0 01-2 18.3 22.4 22.4 0 01-21.7 18.6c-3 .1-6 .4-9 .4H475.4c-.7 4.3-3.9 6-7.5 7-3 .9-6.1 1.4-9.2 2.1-.4.1-.6.6-.9.9h-365c-13.9-3.1-20.3-12.6-22-26C71 358.7 71 196.3 71 34z"/><path fill="#FCFCFC" d="M71 521c.6 1.6 1.4 3.2 1.8 4.8 2.8 10.1 9 17.1 19.2 20.3.4.1.7.6 1 .9H71v-26z"/><path fill="#F23838" d="M414 525H123.1c-3.7 0-7.3-.1-11 .3-8.3.8-14-5.5-15-13.4-.3-2-.2-4-.2-6l.2-6.5V143l-.2-10.5c0-2.3 0-4.7.5-6.9.8-3.5 2.4-4.5 6.1-4.6h11c24.7 0 49.3-.1 74 .2 15.8.1 30.9-3.4 45.5-9.1a144.7 144.7 0 0039-24.4 452.1 452.1 0 0146-34.1c6-3.8 12.3-7.3 19.4-8.8 1.6-.3 3.2-.7 4.9-.7h64c5.5 0 8.3 2.5 8.9 7.9.2 1.8.1 3.7.1 5.5l-.2 162c-.2 68-.6 135.9-.9 203.9l-.1 47c-.1 17.5-.4 34.9-.7 52.4-.2.4-.3 1.1-.4 2.2z"/><path fill="#E23434" d="M474 483.6c-10.1-7.5-34.7-7.7-47-1.1v-5.1L426.9 94c0-4.2 1.2-6.7 5.1-7.9 2.8-.9 5.7-1.9 8.6-2.1 6.3-.3 12.6-.1 19-.1 4.1 0 7.7 1.9 11.2 3.8 2.5 1.4 2.8 3.9 3.3 6.3.2 1.1 0 2.3 0 3.5v380.4l-.1 5.7z"/><path fill="#F23838" d="M473.9 11.5v21.4c-3.6-1.4-6.9-3.2-10.3-3.8-5.5-.9-11.2-1.2-16.8-1.2-25-.1-50-.1-75 .1-8.1.1-16.2.7-24.3 1.8A96.5 96.5 0 00312.4 43a374 374 0 00-37.7 27c-9.3 7.3-18.4 14.8-28.8 20.4-7.6 4.1-15.5 7.6-23.9 9.8-1.8.5-3.9.1-5.4 1-1.8.9-3.3 2.3-5.4.9-2.3 3.4-6 .5-8.9 2.2-1.9 1.1-4.6.8-7 .8l-13.1.2-13.5-.2h-68c-1.3 0-2.7.1-4-.1-3.4-.4-4.7-1.7-4.7-5.1 0-22.5-.4-45 .1-67.5.3-11.9 6.4-20.6 19.9-23.4a44 44 0 018.9-.9L455.4 8c6.3 0 12.4 1.2 18.5 3.5zM476.2 535V54.2l3.5-.2c20.2 0 40.3-.3 60.5.2 16.5.4 31.8 5.6 46.2 13.6 13.7 7.7 26 17.3 38.1 27.1 11.9 9.6 23.9 19 38 25.3a131.9 131.9 0 0059.5 11.4c29.8-1.6 59.6-.3 89.4-.7l2.3.1.2 4.4c0 121.7.1 243.3-.1 365 0 6.9-.4 14-3 20.5-3.2 7.9-8.6 12.9-17.5 13.2-5.8.2-11.6.7-17.4.7H482.4c-1.9.2-3.8.2-6.2.2z"/><path fill="#F23838" d="M415 44.1h10v491.8l-5 .2c-59.8-.1-119.7 0-179.5-.2-43.5-.1-86.9-.6-130.4-.8-6.4 0-12-2.1-16.1-6.7-3-3.3-5.3-7.5-5.9-12.2-.6-4.8-1.1-9.6-1.1-14.4v-376-4.6h9.8c-2 4.5-3.4 9-1.9 14 .4 1.2.1 2.6.1 4v361.5c0 3.8-.3 7.6.1 11.3 1.1 10.9 9.3 16.7 20.2 15.7 2.3-.2 4.6-.6 6.9-.6h294.4l.2-4.5.2-101 .1-125.5.9-204.4c0-11.5 0-23 .2-34.5 0-4.6-.3-9-3.2-13.1z"/><path fill="#A31111" d="M76.4 529.2a37.5 37.5 0 01-3.5-14.5v-12.5-450c0-3.8-.2-7.7-.1-11.5a29.6 29.6 0 0118.7-28.5c3.7-1.6 7.8-2.3 11.9-3.1a24.5 24.5 0 00-11.2 13.2 32 32 0 00-2.2 10c-.2 22.7-.1 45.3-.1 68l.3 4.1c-4.1 1.3-5.4 4.5-5.4 9 .2 40.3.2 80.4.2 120.6v262c0 15.4 0 15.4-6.8 29.4l-1.8 3.8z"/><path fill="#9A0505" d="M432.7 544.8H108.5l4-7.8h5.1c36.5 0 73-.6 109.5.2 64.3 1.4 128.6.3 192.9.8 2.3 0 4 .4 5.7 2.2 2.1 1.9 4.8 3.2 7 4.6z"/><path fill="#E23434" d="M474 66.4a56.3 56.3 0 00-47-.9c0-9.4-.1-18.8.1-28.3 0-1 1-2.6 2-3 3.6-1.6 7.3-3.7 11.1-3.9 7.6-.5 15.3-1.4 22.8.7 2.7.7 5.3 1.9 7.8 3.2 2.4 1.3 3.3 3.7 3.3 6.3l-.1 25.9zM474 532.6a61.9 61.9 0 00-46.7-1c-.1-.7-.3-1.8-.3-2.8 0-6.3.2-12.7-.1-19-.1-3.2 1.2-4.7 3.8-6.1a32 32 0 0112.4-3.2c9-.9 17.9-.7 26.2 3.5a7.8 7.8 0 014.6 7.5l.1 21.1z"/><path fill="#9A0505" d="M87 118.8V111c.1-2.3 1.5-3.6 3.8-3.9l2-.1h80.9l3.2.2c-.3 4.5-2.5 7.9-4.4 11.6H87zM207 117c1.4-3.8 2.8-7.7 4.4-11.4.2-.4 1.4-.4 3-.8l-3.8 10.4c3.3-1.4 4.2-4.2 5-6.8 1.1-3.6 3.1-5.2 6.7-6.2a125.2 125.2 0 0044-22.9c12.3-9.7 24.9-19 37.4-28.5.5-.4 1.1-.6 2.5-1.3l-1.2 4.8a22.6 22.6 0 01-9.5 13.1c-10 7-19.5 14.8-29 22.5a120.2 120.2 0 01-49.4 25.1l-9.1 1.9c-.3.5-.6.5-1 .1zM341.9 41.7l3.6-9.7 10.4-1.1c23.4-1.6 46.8-.8 70.3-1h5.7c-1.8 1.1-3.1 1.7-4.2 2.7-1.3 1.2-2.8 2.5-3.3 4-.4 1.3.5 3.1.8 5l-83.3.1z"/><path fill="#E23434" d="M459.8 480.2v18.5a52.5 52.5 0 00-32.8 4.4v-15.8c0-1.8.8-2.8 2.4-3.3 3.6-1.2 7.1-2.8 10.7-3.5 6.4-1.1 12.8-.5 19.7-.3zM427.1 85.9V68.5c10.2-6.5 21.2-5.9 32.6-4.8v18.1a57.1 57.1 0 00-32.6 4.1z"/><path fill="#9A0505" d="M450.3 529.5c4.6.5 9.2.7 13.7 1.6 2.5.5 5 1.8 7.2 3.1 2.4 1.4 2.5 3.9.2 5.7-1 .8-2.2 1.5-3.4 1.9a54.3 54.3 0 01-34.5.8c-1.7-.5-3.4-1.4-4.8-2.4-2.7-1.9-2.4-4.5.5-6.3a27 27 0 0114.1-3.9h7v-.5z"/><path fill="#E23434" d="M462.2 82.3V64l4.7 1.3V83l-4.7-.7zM462.2 498.9v-18.1l4.6 1.4v18.1l-4.6-1.4zM474 87.2l-4.7-2.7V66.8c3.5 1.5 4.6 4.1 4.7 7.2v13.2zM474 504.1l-4.7-2.6v-17.7c3.7 1.3 4.6 4.1 4.7 7.1v13.2z"/><path fill="#940505" d="M85.4 515.1c2 3.5 1.3 6.4-.2 9.3-1.7 3.4-3.2 7.1-5 11.3l-2.7-3.5 7.9-17.1z"/><path fill="#900505" d="M305.2 59.7c1.5-4 2.8-8.2 4.7-12 .8-1.5 2.8-2.4 5-3.2-1.4 3.9-2.4 8-4.2 11.7-.8 1.7-3.1 2.7-4.7 3.9l-.8-.4z"/><path fill="#950505" d="M179.6 118.9h-3.9c0-.4-.2-.7-.1-1l3.3-7.7c.8-1.9 1.9-3.5 4.8-3-.2 4.3-3.2 7.5-4.1 11.7z"/><path fill="#930505" d="M83.6 539.2c-.5-.9-1.6-2-1.4-2.5 1.7-4.2 3.7-8.3 6.1-12.2 2.6 5.8-2.3 9.6-3.5 14.4l-1.2.3z"/><path fill="#950505" d="M182 118.2l3.9-9c.8-1.9 1.9-2.5 4.4-1.5-1.5 3.5-2.8 7-4.5 10.3-.4.8-2.1.9-3.2 1.3a3 3 0 00-.6-1.1z"/><path fill="#910505" d="M207 117h1c-3.1 1.2-3.1 1.2-7.4.4 1.5-3.5 2.8-7 4.5-10.3.4-.8 2.1-.9 3.7-1.5l-3.8 9c-.5 1.6.2 2.5 2 2.4z"/><path fill="#930505" d="M187.9 119.7c5.3-12.3 5.3-12.3 8.7-12-1.6 3.6-2.9 7-4.6 10.3-.5.8-2.1.9-4.1 1.7z"/><path fill="#910505" d="M86.2 540.8l5.1-10.9c1.7.7 2.9 1.2 2.2 3l-3.3 7.7c-1 2.3-2.3 1.7-4 .2z"/><path fill="#940505" d="M197.9 118.8h-3.6l4.5-10.2c.5-1.2.6-1.2 3.5-1.2l-4.4 11.4z"/><path fill="#8F0505" d="M314 53.4l3.5-9.5c.7-1.9 2.1-2.6 4.7-2.9-2.4 4.9-2.7 10.2-7.3 13l-.9-.6z"/><path fill="#900505" d="M335.7 35.5c-1.3 4.1-1.7 8.9-8 10.8 3-4.2 2.1-9.8 8-10.8z"/><path fill="#950505" d="M95.9 545.4c1.6-3.3 2.7-5.7 4-8 .4-.6 1.5-.8 2.2-1.2.3.7 1 1.5.8 2.1-.8 2.1-1.7 4.3-3 6.2-.4.5-1.9.4-4 .9z"/><path fill="#920505" d="M322.3 48.9c-.6-3.1 1.7-5.2 2.3-7.8.2-1 1.1-1.9 1.9-2.7.4-.4 1.2-.3 1.9-.4-1.5 7.1-2.5 9-6.1 10.9z"/><path fill="#8B0505" d="M335.9 42.5c1.9-3.4 1.4-8.1 6.5-9.8-1.7 8.8-2.4 9.9-6.5 9.8z"/><path fill="#8E0505" d="M91.5 543.3l3.5-8.2c.3-.5 1.2-.8 1.8-1.1.3.8 1 1.7.8 2.4-.7 2.2-1.6 4.3-2.8 6.3-.5.8-1.9 1.1-2.9 1.6l-.4-1z"/><path fill="#900505" d="M110.3 536.7c-2.6 3.5-2.6 7.8-7 9.3-.2-3.4 1-6 2.7-8.3.6-.7 2.3-.5 4.3-1z"/><path fill="#050505" d="M483 178.3l-.1-28c-.2-22.5-.5-44.9-.6-67.4 0-2.9.4-6 1.2-8.8 1.4-5 4.3-7 9.5-7.1h62c7.3-.1 14 2.1 20.3 5.5a332.3 332.3 0 0148.6 33.8c11 8.8 21.7 18.1 34.6 24.3 8.1 3.9 16.1 7.8 25.2 8.9 1.4.2 2.6 1.2 4 1.6 11.2 3.1 22.6 3.1 34.1 3l61-.1c4.7 0 9.3.2 14-.2 6.8-.5 10.4 1.6 10.4 10.1-.2 58.7-.1 117.3-.1 176v174.5c0 4.6-.6 8.9-2.7 13a16.3 16.3 0 01-15.6 9.5l-299.4.1h-1.5c-3.3-.1-3.5-.4-3.6-3.9v-2l-.2-148"/><path fill="#AFAFAF" stroke="#000" d="M254.3 136h133.5c7.8 0 12 4 12.2 11.8v217.4l-.1 5a11 11 0 01-11 10.7l-4.5.1-225.9.1c-3.4 0-5.8-.8-8.3-3.3a2122.3 2122.3 0 00-36.8-36.7 10.3 10.3 0 01-3.5-8.2l.1-181.4V147c-.2-7 3.4-10.9 10.4-10.9l133.9-.1z"/><path fill="#656565" d="M392.2 383a12 12 0 01-8.1 3H155.2c-2.5 0-4.3-.7-6.1-2.5a8615.3 8615.3 0 00-42.7-42.8 7.3 7.3 0 01-2.3-5.7l.1-182a22 22 0 013.9-12.3l.1 44.2v88.5c0 20.3.1 40.7-.1 61 0 2.9.8 4.9 2.8 7 12.9 12.7 25.8 25.6 38.6 38.5a9.8 9.8 0 007.9 3.1l230.9-.1 3.9.1z"/><path fill="#FAFAFA" stroke="#000" d="M140.6 93.4a39.6 39.6 0 11.5-79.2 40 40 0 0139.7 39.7 39.7 39.7 0 01-40.2 39.5z"/><path fill="#4FF905" stroke="#000" d="M257.3 17.8c6.1 0 8.9 2.8 8.9 8.7 0 5.4-3.7 9.4-8.7 9.4a9.8 9.8 0 01-9.3-9.2c-.2-4.8 4-8.9 9.1-8.9z"/><path fill="#F90505" stroke="#000" d="M194.6 17.8c5.7 0 9.3 3.2 9.3 8.6.1 5.2-4 9.5-9.3 9.5-4.9 0-8.6-4.1-9-9.2-.2-4.6 4-9.8 9-8.9z"/><path fill="#F9F905" stroke="#000" d="M226 17.7c5.7 0 9.1 3.3 9.2 8.8a9 9 0 01-9 9.3 9.4 9.4 0 01-9.3-9.1c-.1-5.2 3.7-9 9.1-9z"/><path fill="#F23838" d="M484.9 78h5.3c18.2 0 36.3.2 54.5-.1 7.9-.1 15.3 1.6 21.9 5.6a428.3 428.3 0 0129.9 19.7c11.4 8.3 22.1 17.6 33.3 26.1a126 126 0 0086.9 25.5c21.6-1.5 43.2-.5 64.9-.8 3.1 0 6.3.3 9.4.8 4.2.6 5.2 2 5.2 6.4l-.1 349c0 3.5-.1 7-.8 10.4-.7 3.7-1.7 4.2-5.5 4.4l-8.5.1H486.2v-5l-.2-92.5c-.1-39.2 0-78.3-.2-117.5l-.8-194.9-.1-37.2z"/><path fill="#9A0505" d="M798 521.1V508c0-108.8.1-217.6-.1-326.4 0-7.5 2-13.9 6.1-21.1V500c0 3.3.1 6.7-.1 10-.2 4.2-1.6 8-5.9 11.1zM653.7 131.3l-3.4 7.8a32.8 32.8 0 01-12.2-6.6c-13.3-10.1-26.4-20.4-39.7-30.6a202 202 0 00-14.3-9.9c-2.1-1.3-2.7-2.7-1.8-4.9l2.4-6.1c8.2 4.5 15.1 10.1 22.1 15.5 11.1 8.6 22.1 17.5 33.2 26 4.4 3.3 9.1 5.8 13.7 8.8zM683.6 143c1.4.1 2.7.1 4 .4a82.3 82.3 0 0021.5 2.7l77.4-.1h5.1l-.7 2.2c-.9 3-2.8 3.9-5.9 3.9a2341 2341 0 00-53 0c-10.3.1-20.5.9-30.8.8-5.7 0-11.5-1.1-17.2-2-3.3-.5-3.6-1.3-2.3-4.3l1.9-3.6zM553.3 69.8l-2.5 5.9h-64.3c1-4.5 3-6.7 7.1-6.7h58.5c.2.1.4.4 1.2.8z"/><path fill="#950505" d="M577.6 76.2c-.9 3.3-1.9 6.3-4.3 9.1l-3.2-2.5 3.4-8.2 4.1 1.6z"/><path fill="#920505" d="M575.8 86.7l4-8.8 3.3 1.5a830 830 0 00-3.7 9c-1.2-.7-2.3-1.2-3.6-1.7z"/><path fill="#950505" d="M568 71.7l3.7 1.6-3.6 8.5c-2.2-.7-3.9-1.2-2.7-3.7l2.6-6.4z"/><path fill="#890505" d="M553.3 75.6l2.2-6.4h4.8c-1.1 2.6-1.8 4.9-3.1 6.9-1 1.6-2.5 1.1-3.9-.5z"/><path fill="#940505" d="M562.5 79.4L559 78c1.1-2.6 2.1-5.1 3.4-7.5.2-.4 1.9-.1 3.7-.1l-3.6 9z"/><path fill="#8C0505" d="M654.8 141.8l-2.6-1.3 3.7-8.4c2.8 2.8 2.8 2.8-1.1 9.7z"/><path fill="#8B0505" d="M798.4 165.6c-.5-5.6 3.2-9.6 5.2-14.2.8 5.7-3.2 9.6-5.2 14.2z"/><path fill="#860505" d="M802.7 147.3l-4.4 9.6c-1.6-.9-2.2-2-1.3-3.9a218 218 0 003.3-6.8l2.4 1.1z"/><path fill="#8F0505" d="M659.9 143.9l-2.2-1.1v-.9c.8-1.9 1.5-3.9 2.5-5.8.3-.5 1.3-.6 1.9-.9.3.7 1 1.5.8 2l-3 6.7z"/><path fill="#920505" d="M791.9 152.3c2-6.1 2-6.1 5.6-5.9-2.5 6.4-2.5 6.4-5.6 5.9z"/><path fill="#870505" d="M677.1 150.5c-1.7-4.2.7-6.5 2-9.5.7.6 1.5 1 1.5 1.4 0 2.7-1.2 5.1-3.5 8.1z"/><path fill="#950505" d="M671 147.2l3.8-7.8c2.3 3.3.3 5.3-.7 7.3-.4.7-1.4 1.1-2.2 1.6l-.9-1.1z"/><path fill="#8F0505" d="M668.4 147.2c-2.5-1.7-.9-3.1-.4-4.2.6-1.4 1.5-2.7 2.4-4 .1-.1.9.2 1.8.4l-3.8 7.8zM666.8 137.5c-.6 3-.4 6.3-4.3 8.1 1.3-6.1 1.5-6.3 4.3-8.1z"/><path fill="#101010" d="M293.3 370.9c1.4-3.1 3.7-2.6 5.8-2.6h61.3c1.5 0 3 .2 4.3.7.6.2.8 1.4 1.7 3H295c-.4-.1-1-.7-1.7-1.1z"/><path fill="#050505" d="M293.2 344.4c1-1.1 1.5-2 2.2-2.3.9-.3 2-.2 3-.2h62.9c1.2 0 2.4-.1 3.4.3.6.2.9 1.3 1.5 2.1-4.1 1-67.3 1.2-73 .1zM293.6 352.9c.6-.6 1-1.5 1.8-1.8.9-.3 2-.2 3-.2h62.9c1.2 0 2.4-.1 3.4.3.6.2.9 1.3 1.8 2.6h-72.3l-.6-.9zM293.4 362.7c.7-1.2 1-2.4 1.7-2.6 1-.4 2.3-.3 3.4-.3h62.4c1.3 0 2.7 0 4 .3.4.1 1 1 1 1.4 0 .5-.6 1.2-1.1 1.3-.9.2-2 .2-3 .2h-63.9c-1.3.1-2.6-.1-4.5-.3z"/><path fill="#A5FA6D" d="M261.9 22.1c0 1.9-1.4 2.9-3.4 2.9-2.1 0-3.7-1.1-3.4-2.6.4-1.9 2.1-2.2 3.7-2.4 1.8-.1 2.8.8 3.1 2.1z"/><path fill="#FA7373" d="M193.1 21.7c3.4-1.9 5.1-2 5.8-.1.5 1.5-.2 2.6-1.6 3.2-2.1.9-3.4-.2-4.2-3.1z"/><path fill="#FAFA8F" d="M231.3 23c-1.8.8-3.2 1.7-4.7 1.9-.8.1-2.1-1.1-2.4-1.9-.2-.6 1-1.8 1.8-2.4 2.1-1.4 3.4 0 5.3 2.4z"/><path fill="#FA0505" stroke="#000" d="M172.9 343.9c7.4 0 12.3 4.6 12.4 11.8.1 7.4-4.6 12.1-11.7 12.6-7.7.5-12.8-6.2-12.7-12.2.2-7.3 4.7-12.2 12-12.2z"/><path fill="#F00505" stroke="#000" d="M238.2 145.1c.1 2.2-1 3.7-3 3.8-1.9.2-4.1-1.7-4.1-3.5 0-1.7 1.6-3.3 3.5-3.5 2.3 0 3.5 1 3.6 3.2z"/><path fill="#F40505" stroke="#000" d="M259 145.2c.1 1.7-1.6 3.6-3.3 3.8-1.7.2-3.6-1.4-3.7-3.2-.2-2.4 1-3.7 3.4-3.8 2 0 3.4 1.2 3.6 3.2z"/><path fill="#05FAFA" stroke="#000" d="M143.4 19.9c17.3-1.3 30.8 16.4 30.9 30 .1 17.8-15.9 32.3-31.1 31.6-17.5-.8-30.9-13.5-31-31-.1-16.9 14.7-31.8 31.2-30.6z"/><path fill="#9AFACF" d="M134.8 40.9c-1.7 0-3.3.2-5 0-2.9-.3-4.4-2.6-3.6-5.3 2.3-7.6 13.4-13.3 21-10.7a9 9 0 015.8 6.3c1 3.4 0 5.1-3.2 6.9a39 39 0 01-15 2.8z"/></svg>