<svg xmlns="http://www.w3.org/2000/svg" viewBox="0 0 754 550" width="754" height="550"><style>tspan { white-space:pre }.shp0 { fill: #050505 } .shp1 { fill: #f23838 } .shp2 { fill: #e23434 } .shp3 { fill: #a31111 } .shp4 { fill: #9a0505 } .shp5 { fill: #940505 } .shp6 { fill: #900505 } .shp7 { fill: #950505 } .shp8 { fill: #930505 } .shp9 { fill: #910505 } .shp10 { fill: #8f0505 } .shp11 { fill: #920505 } .shp12 { fill: #8b0505 } .shp13 { fill: #8e0505 } .shp14 { fill: #afafaf;stroke: #000000 } .shp15 { fill: #656565 } .shp16 { fill: #fafafa;stroke: #000000 } .shp17 { fill: #4ff905;stroke: #000000 } .shp18 { fill: #f90505;stroke: #000000 } .shp19 { fill: #f9f905;stroke: #000000 } .shp20 { fill: #890505 } .shp21 { fill: #8c0505 } .shp22 { fill: #860505 } .shp23 { fill: #870505 } .shp24 { fill: #101010 } .shp25 { fill: #a5fa6d } .shp26 { fill: #fa7373 } .shp27 { fill: #fafa8f } .shp28 { fill: #fa0505;stroke: #000000 } .shp29 { fill: #f00505;stroke: #000000 } .shp30 { fill: #f40505;stroke: #000000 } .shp31 { fill: #05fafa;stroke: #000000 } .shp32 { fill: #9afacf } </style><path class="shp0" d="M3 34C3.3 33.6 3.7 33.3 3.8 32.9C4.43 29.75 5.54 26.72 7.09 23.9C8.64 21.09 10.62 18.54 12.95 16.33C15.28 14.12 17.94 12.29 20.84 10.89C23.73 9.49 26.82 8.55 30 8.1C36.6 6.8 43.5 6.1 50.3 6.1L389.3 6C395.7 6 401.7 7.6 408.1 9.8L408.1 52L412.3 52C431.6 52 451 52 470.3 52.2C486.4 52.3 501.5 56.3 515.6 64C519.28 66.11 522.91 68.3 526.49 70.56C530.07 72.83 533.6 75.17 537.08 77.59C540.56 80.01 543.99 82.51 547.36 85.08C550.73 87.65 554.04 90.29 557.3 93C567.4 100.9 577.1 109.2 588.6 115.1C592.88 117.4 597.29 119.44 601.82 121.2C606.34 122.97 610.97 124.46 615.68 125.66C620.38 126.86 625.16 127.78 629.98 128.41C634.79 129.03 639.64 129.36 644.5 129.4C677 129.4 709.5 129.2 741.9 129L747.7 129L747.9 134.9L747.9 241.4L747.8 499.8C747.78 501.34 747.73 502.87 747.64 504.41C747.55 505.94 747.42 507.47 747.25 509C747.08 510.53 746.88 512.05 746.64 513.57C746.39 515.08 746.12 516.6 745.8 518.1C745.36 520.65 744.48 523.11 743.2 525.36C741.93 527.61 740.27 529.63 738.3 531.31C736.34 533 734.09 534.33 731.67 535.25C729.25 536.16 726.69 536.66 724.1 536.7C721.1 536.8 718.1 537.1 715.1 537.1L407.4 537.1C406.7 541.4 403.5 543.1 399.9 544.1C396.9 545 393.8 545.5 390.7 546.2C390.3 546.3 390.1 546.8 389.8 547.1L24.8 547.1C10.9 544 4.5 534.5 2.8 521.1C3 358.7 3 196.3 3 34Z" /><path class="shp1" d="M346 525L55.1 525C51.4 525 47.8 524.9 44.1 525.3C35.8 526.1 30.1 519.8 29.1 511.9C28.8 509.9 28.9 507.9 28.9 505.9L29.1 499.4L29.1 143L28.9 132.5C28.9 130.2 28.9 127.8 29.4 125.6C30.2 122.1 31.8 121.1 35.5 121L46.5 121C71.2 121 95.8 120.9 120.5 121.2C136.3 121.3 151.4 117.8 166 112.1C169.55 110.6 173.03 108.96 176.45 107.19C179.87 105.41 183.21 103.5 186.48 101.46C189.74 99.42 192.92 97.25 196.01 94.95C199.1 92.65 202.1 90.24 205 87.7C208.65 84.62 212.34 81.6 216.09 78.63C219.83 75.67 223.62 72.76 227.46 69.92C231.3 67.08 235.18 64.29 239.1 61.57C243.02 58.85 246.99 56.19 251 53.6C257 49.8 263.3 46.3 270.4 44.8C272 44.5 273.6 44.1 275.3 44.1L339.3 44.1C344.8 44.1 347.6 46.6 348.2 52C348.4 53.8 348.3 55.7 348.3 57.5L348.1 219.5C347.9 287.5 347.5 355.4 347.2 423.4L347.1 470.4C347 487.9 346.7 505.3 346.4 522.8C346.2 523.2 346.1 523.9 346 525Z" /><path class="shp2" d="M406 483.6C395.9 476.1 371.3 475.9 359 482.5L359 477.4L358.9 94C358.9 89.8 360.1 87.3 364 86.1C366.8 85.2 369.7 84.2 372.6 84C378.9 83.7 385.2 83.9 391.6 83.9C395.7 83.9 399.3 85.8 402.8 87.7C405.3 89.1 405.6 91.6 406.1 94C406.3 95.1 406.1 96.3 406.1 97.5L406.1 477.9L406 483.6L406 483.6Z" /><path class="shp1" d="M405.9 11.5L405.9 32.9C402.3 31.5 399 29.7 395.6 29.1C390.1 28.2 384.4 27.9 378.8 27.9C353.8 27.8 328.8 27.8 303.8 28C295.7 28.1 287.6 28.7 279.5 29.8C276.4 30.31 273.32 30.98 270.28 31.79C267.24 32.61 264.25 33.57 261.3 34.68C258.36 35.79 255.47 37.04 252.65 38.43C249.83 39.82 247.07 41.34 244.4 43C241.12 45.05 237.88 47.16 234.67 49.31C231.45 51.46 228.27 53.66 225.13 55.92C221.99 58.17 218.88 60.47 215.81 62.81C212.73 65.16 209.7 67.56 206.7 70C197.4 77.3 188.3 84.8 177.9 90.4C170.3 94.5 162.4 98 154 100.2C152.2 100.7 150.1 100.3 148.6 101.2C146.8 102.1 145.3 103.5 143.2 102.1C140.9 105.5 137.2 102.6 134.3 104.3C132.4 105.4 129.7 105.1 127.3 105.1L114.2 105.3L100.7 105.1L32.7 105.1C31.4 105.1 30 105.2 28.7 105C25.3 104.6 24 103.3 24 99.9C24 77.4 23.6 54.9 24.1 32.4C24.4 20.5 30.5 11.8 44 9C44.73 8.85 45.47 8.72 46.2 8.61C46.94 8.49 47.68 8.4 48.43 8.32C49.17 8.25 49.91 8.19 50.66 8.15C51.41 8.12 52.15 8.1 52.9 8.1L387.4 8C393.7 8 399.8 9.2 405.9 11.5ZM408.2 535L408.2 54.2L411.7 54C431.9 54 452 53.7 472.2 54.2C488.7 54.6 504 59.8 518.4 67.8C532.1 75.5 544.4 85.1 556.5 94.9C568.4 104.5 580.4 113.9 594.5 120.2C599.15 122.28 603.92 124.09 608.78 125.62C613.64 127.16 618.58 128.4 623.59 129.36C628.59 130.32 633.65 130.99 638.73 131.36C643.81 131.74 648.91 131.82 654 131.6C683.8 130 713.6 131.3 743.4 130.9L745.7 131L745.9 135.4C745.9 257.1 746 378.7 745.8 500.4C745.8 507.3 745.4 514.4 742.8 520.9C739.6 528.8 734.2 533.8 725.3 534.1C719.5 534.3 713.7 534.8 707.9 534.8L414.4 534.8C412.5 535 410.6 535 408.2 535L408.2 535Z" /><path class="shp1" d="M347 44.1L357 44.1L357 535.9L352 536.1C292.2 536 232.3 536.1 172.5 535.9C129 535.8 85.6 535.3 42.1 535.1C35.7 535.1 30.1 533 26 528.4C23 525.1 20.7 520.9 20.1 516.2C19.5 511.4 19 506.6 19 501.8L19 125.8L19 121.2L28.8 121.2C26.8 125.7 25.4 130.2 26.9 135.2C27.3 136.4 27 137.8 27 139.2L27 500.7C27 504.5 26.7 508.3 27.1 512C28.2 522.9 36.4 528.7 47.3 527.7C49.6 527.5 51.9 527.1 54.2 527.1L348.6 527.1L348.8 522.6L349 421.6L349.1 296.1L350 91.7C350 80.2 350 68.7 350.2 57.2C350.2 52.6 349.9 48.2 347 44.1L347 44.1Z" /><path class="shp3" d="M8.4 529.2C7.87 528.07 7.4 526.91 6.98 525.72C6.57 524.54 6.22 523.34 5.92 522.13C5.63 520.91 5.4 519.68 5.22 518.44C5.05 517.2 4.95 515.95 4.9 514.7L4.9 502.2L4.9 52.2C4.9 48.4 4.7 44.5 4.8 40.7C4.7 37.67 5.07 34.64 5.89 31.72C6.71 28.8 7.97 26.02 9.64 23.49C11.3 20.95 13.34 18.69 15.7 16.77C18.05 14.86 20.68 13.32 23.5 12.2C27.2 10.6 31.3 9.9 35.4 9.1C34.11 9.82 32.89 10.65 31.75 11.58C30.6 12.52 29.55 13.55 28.6 14.68C27.64 15.8 26.79 17.01 26.05 18.29C25.32 19.57 24.7 20.91 24.2 22.3C23.88 23.1 23.6 23.91 23.35 24.73C23.1 25.55 22.88 26.37 22.7 27.21C22.51 28.05 22.36 28.89 22.25 29.74C22.13 30.59 22.05 31.44 22 32.3C21.8 55 21.9 77.6 21.9 100.3L22.2 104.4C18.1 105.7 16.8 108.9 16.8 113.4C17 153.7 17 193.8 17 234L17 496C17 511.4 17 511.4 10.2 525.4L8.4 529.2L8.4 529.2Z" /><path class="shp4" d="M364.7 544.8L40.5 544.8L44.5 537L49.6 537C86.1 537 122.6 536.4 159.1 537.2C223.4 538.6 287.7 537.5 352 538C354.3 538 356 538.4 357.7 540.2C359.8 542.1 362.5 543.4 364.7 544.8L364.7 544.8Z" /><path class="shp2" d="M406 66.4C402.36 64.64 398.54 63.28 394.6 62.34C390.67 61.4 386.64 60.89 382.6 60.81C378.55 60.73 374.51 61.09 370.55 61.88C366.58 62.67 362.71 63.88 359 65.5C359 56.1 358.9 46.7 359.1 37.2C359.1 36.2 360.1 34.6 361.1 34.2C364.7 32.6 368.4 30.5 372.2 30.3C379.8 29.8 387.5 28.9 395 31C397.7 31.7 400.3 32.9 402.8 34.2C405.2 35.5 406.1 37.9 406.1 40.5L406 66.4L406 66.4ZM406 532.6C402.33 531.01 398.52 529.79 394.62 528.93C390.72 528.08 386.74 527.61 382.75 527.53C378.75 527.44 374.76 527.74 370.83 528.43C366.89 529.11 363.03 530.17 359.3 531.6C359.2 530.9 359 529.8 359 528.8C359 522.5 359.2 516.1 358.9 509.8C358.8 506.6 360.1 505.1 362.7 503.7C363.67 503.23 364.65 502.81 365.66 502.43C366.67 502.06 367.7 501.74 368.74 501.47C369.78 501.2 370.83 500.99 371.89 500.83C372.96 500.66 374.03 500.55 375.1 500.5C384.1 499.6 393 499.8 401.3 504C402.01 504.32 402.67 504.74 403.26 505.26C403.84 505.77 404.35 506.37 404.76 507.04C405.17 507.7 405.47 508.43 405.67 509.18C405.86 509.94 405.94 510.72 405.9 511.5L406 532.6Z" /><path class="shp4" d="M19 118.8L19 111C19.1 108.7 20.5 107.4 22.8 107.1L24.8 107L105.7 107L108.9 107.2C108.6 111.7 106.4 115.1 104.5 118.8L19 118.8ZM139 117C140.4 113.2 141.8 109.3 143.4 105.6C143.6 105.2 144.8 105.2 146.4 104.8L142.6 115.2C145.9 113.8 146.8 111 147.6 108.4C148.7 104.8 150.7 103.2 154.3 102.2C158.3 101.05 162.24 99.7 166.1 98.15C169.97 96.61 173.75 94.87 177.45 92.95C181.14 91.03 184.73 88.93 188.21 86.65C191.7 84.37 195.06 81.91 198.3 79.3C210.6 69.6 223.2 60.3 235.7 50.8C236.2 50.4 236.8 50.2 238.2 49.5L237 54.3C236.64 55.63 236.17 56.93 235.57 58.18C234.98 59.42 234.27 60.61 233.46 61.73C232.65 62.85 231.74 63.89 230.74 64.84C229.74 65.79 228.66 66.65 227.5 67.4C217.5 74.4 208 82.2 198.5 89.9C194.94 92.91 191.21 95.71 187.33 98.29C183.45 100.87 179.42 103.22 175.27 105.34C171.11 107.45 166.84 109.31 162.46 110.93C158.09 112.54 153.63 113.9 149.1 115L140 116.9C139.7 117.4 139.4 117.4 139 117L139 117ZM273.9 41.7L277.5 32L287.9 30.9C311.3 29.3 334.7 30.1 358.2 29.9L363.9 29.9C362.1 31 360.8 31.6 359.7 32.6C358.4 33.8 356.9 35.1 356.4 36.6C356 37.9 356.9 39.7 357.2 41.6L273.9 41.7Z" /><path class="shp2" d="M391.8 480.2L391.8 498.7C389.04 498.18 386.25 497.88 383.44 497.8C380.63 497.73 377.83 497.87 375.04 498.25C372.26 498.62 369.51 499.22 366.83 500.03C364.14 500.84 361.52 501.87 359 503.1L359 487.3C359 485.5 359.8 484.5 361.4 484C365 482.8 368.5 481.2 372.1 480.5C378.5 479.4 384.9 480 391.8 480.2L391.8 480.2ZM359.1 85.9L359.1 68.5C369.3 62 380.3 62.6 391.7 63.7L391.7 81.8C388.96 81.34 386.19 81.08 383.41 81.02C380.63 80.96 377.86 81.11 375.1 81.45C372.34 81.8 369.61 82.35 366.94 83.09C364.26 83.84 361.64 84.77 359.1 85.9L359.1 85.9Z" /><path class="shp4" d="M382.3 529.5C386.9 530 391.5 530.2 396 531.1C398.5 531.6 401 532.9 403.2 534.2C405.6 535.6 405.7 538.1 403.4 539.9C402.4 540.7 401.2 541.4 400 541.8C397.25 542.79 394.42 543.56 391.54 544.1C388.66 544.64 385.74 544.95 382.82 545.01C379.89 545.08 376.96 544.91 374.06 544.51C371.16 544.1 368.3 543.47 365.5 542.6C363.8 542.1 362.1 541.2 360.7 540.2C358 538.3 358.3 535.7 361.2 533.9C362.26 533.26 363.36 532.69 364.49 532.21C365.62 531.72 366.79 531.31 367.98 530.98C369.17 530.65 370.38 530.4 371.61 530.24C372.83 530.07 374.06 529.99 375.3 530L382.3 530L382.3 529.5L382.3 529.5Z" /><path class="shp2" d="M394.2 82.3L394.2 64L398.9 65.3L398.9 83L394.2 82.3ZM394.2 498.9L394.2 480.8L398.8 482.2L398.8 500.3L394.2 498.9ZM406 87.2L401.3 84.5L401.3 66.8C404.8 68.3 405.9 70.9 406 74L406 87.2ZM406 504.1L401.3 501.5L401.3 483.8C405 485.1 405.9 487.9 406 490.9L406 504.1Z" /><path class="shp5" d="M17.4 515.1C19.4 518.6 18.7 521.5 17.2 524.4C15.5 527.8 14 531.5 12.2 535.7L9.5 532.2L17.4 515.1L17.4 515.1Z" /><path class="shp6" d="M237.2 59.7C238.7 55.7 240 51.5 241.9 47.7C242.7 46.2 244.7 45.3 246.9 44.5C245.5 48.4 244.5 52.5 242.7 56.2C241.9 57.9 239.6 58.9 238 60.1L237.2 59.7Z" /><path class="shp7" d="M111.6 118.9L107.7 118.9C107.7 118.5 107.5 118.2 107.6 117.9L110.9 110.2C111.7 108.3 112.8 106.7 115.7 107.2C115.5 111.5 112.5 114.7 111.6 118.9L111.6 118.9Z" /><path class="shp8" d="M15.6 539.2C15.1 538.3 14 537.2 14.2 536.7C15.9 532.5 17.9 528.4 20.3 524.5C22.9 530.3 18 534.1 16.8 538.9L15.6 539.2L15.6 539.2Z" /><path class="shp7" d="M114 118.2L117.9 109.2C118.7 107.3 119.8 106.7 122.3 107.7C120.8 111.2 119.5 114.7 117.8 118C117.4 118.8 115.7 118.9 114.6 119.3C114.57 119.2 114.53 119.1 114.49 119C114.45 118.91 114.41 118.81 114.36 118.72C114.31 118.63 114.25 118.54 114.19 118.45C114.13 118.36 114.07 118.28 114 118.2L114 118.2Z" /><path class="shp9" d="M139 117L140 117C136.9 118.2 136.9 118.2 132.6 117.4C134.1 113.9 135.4 110.4 137.1 107.1C137.5 106.3 139.2 106.2 140.8 105.6L137 114.6C136.5 116.2 137.2 117.1 139 117L139 117Z" /><path class="shp8" d="M119.9 119.7C125.2 107.4 125.2 107.4 128.6 107.7C127 111.3 125.7 114.7 124 118C123.5 118.8 121.9 118.9 119.9 119.7Z" /><path class="shp9" d="M18.2 540.8L23.3 529.9C25 530.6 26.2 531.1 25.5 532.9L22.2 540.6C21.2 542.9 19.9 542.3 18.2 540.8L18.2 540.8Z" /><path class="shp5" d="M129.9 118.8L126.3 118.8L130.8 108.6C131.3 107.4 131.4 107.4 134.3 107.4L129.9 118.8Z" /><path class="shp10" d="M246 53.4L249.5 43.9C250.2 42 251.6 41.3 254.2 41C251.8 45.9 251.5 51.2 246.9 54L246 53.4Z" /><path class="shp6" d="M267.7 35.5C266.4 39.6 266 44.4 259.7 46.3C262.7 42.1 261.8 36.5 267.7 35.5Z" /><path class="shp7" d="M27.9 545.4C29.5 542.1 30.6 539.7 31.9 537.4C32.3 536.8 33.4 536.6 34.1 536.2C34.4 536.9 35.1 537.7 34.9 538.3C34.1 540.4 33.2 542.6 31.9 544.5C31.5 545 30 544.9 27.9 545.4Z" /><path class="shp11" d="M254.3 48.9C253.7 45.8 256 43.7 256.6 41.1C256.8 40.1 257.7 39.2 258.5 38.4C258.9 38 259.7 38.1 260.4 38C258.9 45.1 257.9 47 254.3 48.9L254.3 48.9Z" /><path class="shp12" d="M267.9 42.5C269.8 39.1 269.3 34.4 274.4 32.7C272.7 41.5 272 42.6 267.9 42.5Z" /><path class="shp13" d="M23.5 543.3L27 535.1C27.3 534.6 28.2 534.3 28.8 534C29.1 534.8 29.8 535.7 29.6 536.4C28.9 538.6 28 540.7 26.8 542.7C26.3 543.5 24.9 543.8 23.9 544.3L23.5 543.3L23.5 543.3Z" /><path class="shp6" d="M42.3 536.7C39.7 540.2 39.7 544.5 35.3 546C35.1 542.6 36.3 540 38 537.7C38.6 537 40.3 537.2 42.3 536.7Z" /><path class="shp0" d="M415 178.3L414.9 150.3C414.7 127.8 414.4 105.4 414.3 82.9C414.3 80 414.7 76.9 415.5 74.1C416.9 69.1 419.8 67.1 425 67L487 67C494.3 66.9 501 69.1 507.3 72.5C511.59 74.95 515.83 77.49 520 80.13C524.18 82.77 528.3 85.5 532.35 88.32C536.41 91.14 540.4 94.05 544.33 97.05C548.25 100.04 552.11 103.13 555.9 106.3C566.9 115.1 577.6 124.4 590.5 130.6C598.6 134.5 606.6 138.4 615.7 139.5C617.1 139.7 618.3 140.7 619.7 141.1C630.9 144.2 642.3 144.2 653.8 144.1L714.8 144C719.5 144 724.1 144.2 728.8 143.8C735.6 143.3 739.2 145.4 739.2 153.9C739 212.6 739.1 271.2 739.1 329.9L739.1 504.4C739.1 509 738.5 513.3 736.4 517.4C735.73 518.87 734.84 520.24 733.76 521.45C732.69 522.66 731.44 523.7 730.06 524.54C728.67 525.38 727.17 526.01 725.6 526.41C724.04 526.81 722.42 526.98 720.8 526.9L421.4 527L419.9 527C416.6 526.9 416.4 526.6 416.3 523.1L416.3 521.1L416.1 373.1" /><path class="shp14" d="M186.3 136L319.8 136C327.6 136 331.8 140 332 147.8L332 365.2L331.9 370.2C331.86 371.62 331.55 373.02 330.98 374.32C330.41 375.62 329.59 376.8 328.57 377.78C327.56 378.77 326.36 379.56 325.04 380.09C323.73 380.63 322.32 380.9 320.9 380.9L316.4 381L90.5 381.1C87.1 381.1 84.7 380.3 82.2 377.8C79.17 374.7 76.13 371.62 73.08 368.54C70.04 365.46 66.98 362.4 63.91 359.34C60.85 356.28 57.77 353.23 54.68 350.19C51.6 347.15 48.5 344.12 45.4 341.1C44.82 340.59 44.3 340.02 43.85 339.4C43.4 338.78 43.02 338.11 42.72 337.4C42.41 336.69 42.19 335.95 42.06 335.2C41.92 334.44 41.87 333.67 41.9 332.9L42 151.5L42 147C41.8 140 45.4 136.1 52.4 136.1L186.3 136L186.3 136Z" /><path class="shp15" d="M324.2 383C323.65 383.49 323.05 383.92 322.42 384.3C321.79 384.68 321.12 385 320.43 385.25C319.74 385.51 319.03 385.7 318.3 385.83C317.57 385.95 316.84 386.01 316.1 386L87.2 386C84.7 386 82.9 385.3 81.1 383.5C77.55 379.92 74.01 376.34 70.45 372.77C66.9 369.2 63.35 365.63 59.79 362.06C56.23 358.5 52.67 354.93 49.1 351.37C45.54 347.81 41.97 344.25 38.4 340.7C38.01 340.34 37.67 339.94 37.37 339.5C37.07 339.06 36.82 338.59 36.62 338.1C36.42 337.61 36.28 337.1 36.19 336.58C36.1 336.06 36.07 335.53 36.1 335L36.2 153C36.21 151.91 36.3 150.82 36.47 149.74C36.65 148.66 36.9 147.6 37.23 146.56C37.56 145.52 37.96 144.5 38.45 143.52C38.93 142.54 39.48 141.6 40.1 140.7L40.2 184.9L40.2 273.4C40.2 293.7 40.3 314.1 40.1 334.4C40.1 337.3 40.9 339.3 42.9 341.4C55.8 354.1 68.7 367 81.5 379.9C82 380.44 82.56 380.91 83.16 381.33C83.77 381.74 84.42 382.08 85.1 382.35C85.78 382.62 86.49 382.81 87.21 382.92C87.94 383.03 88.67 383.05 89.4 383L320.3 382.9L324.2 383Z" /><path class="shp16" d="M72.6 93.4C62.1 93.33 52.05 89.1 44.67 81.62C37.29 74.15 33.18 64.05 33.25 53.55C33.32 43.05 37.55 33 45.03 25.62C52.5 18.24 62.6 14.13 73.1 14.2C78.3 14.24 83.45 15.29 88.25 17.3C93.05 19.31 97.41 22.24 101.09 25.91C104.76 29.59 107.69 33.95 109.7 38.75C111.71 43.55 112.76 48.7 112.8 53.9C112.77 59.14 111.71 64.32 109.67 69.15C107.64 73.97 104.66 78.35 100.92 82.02C97.19 85.69 92.76 88.59 87.9 90.54C83.04 92.49 77.84 93.47 72.6 93.4L72.6 93.4Z" /><path class="shp17" d="M189.3 17.8C195.4 17.8 198.2 20.6 198.2 26.5C198.2 31.9 194.5 35.9 189.5 35.9C188.3 35.84 187.13 35.56 186.03 35.08C184.94 34.6 183.94 33.92 183.09 33.08C182.24 32.24 181.55 31.25 181.06 30.16C180.56 29.07 180.27 27.89 180.2 26.7C180 21.9 184.2 17.8 189.3 17.8L189.3 17.8Z" /><path class="shp18" d="M126.6 17.8C132.3 17.8 135.9 21 135.9 26.4C136 31.6 131.9 35.9 126.6 35.9C121.7 35.9 118 31.8 117.6 26.7C117.4 22.1 121.6 16.9 126.6 17.8L126.6 17.8Z" /><path class="shp19" d="M158 17.7C163.7 17.7 167.1 21 167.2 26.5C167.24 27.71 167.04 28.91 166.6 30.04C166.17 31.16 165.51 32.19 164.67 33.06C163.83 33.93 162.83 34.62 161.71 35.09C160.6 35.56 159.41 35.8 158.2 35.8C157 35.79 155.81 35.55 154.7 35.09C153.59 34.63 152.58 33.96 151.72 33.12C150.86 32.28 150.17 31.28 149.69 30.18C149.21 29.08 148.94 27.9 148.9 26.7C148.8 21.5 152.6 17.7 158 17.7L158 17.7Z" /><path class="shp1" d="M416.9 78L422.2 78C440.4 78 458.5 78.2 476.7 77.9C484.6 77.8 492 79.5 498.6 83.5C501.16 85.04 503.7 86.6 506.23 88.19C508.75 89.78 511.26 91.4 513.76 93.04C516.25 94.68 518.72 96.35 521.18 98.04C523.64 99.74 526.08 101.46 528.5 103.2C539.9 111.5 550.6 120.8 561.8 129.3C567.94 133.99 574.49 138.11 581.38 141.61C588.27 145.1 595.47 147.95 602.88 150.13C610.29 152.3 617.89 153.79 625.57 154.58C633.26 155.36 641 155.43 648.7 154.8C670.3 153.3 691.9 154.3 713.6 154C716.7 154 719.9 154.3 723 154.8C727.2 155.4 728.2 156.8 728.2 161.2L728.1 510.2C728.1 513.7 728 517.2 727.3 520.6C726.6 524.3 725.6 524.8 721.8 525L713.3 525.1L418.2 525.1L418.2 520.1L418 427.6C417.9 388.4 418 349.3 417.8 310.1L417 115.2L416.9 78L416.9 78Z" /><path class="shp4" d="M730 521.1L730 508C730 399.2 730.1 290.4 729.9 181.6C729.9 174.1 731.9 167.7 736 160.5L736 500C736 503.3 736.1 506.7 735.9 510C735.7 514.2 734.3 518 730 521.1ZM585.7 131.3L582.3 139.1C581.18 138.77 580.08 138.39 579 137.95C577.93 137.51 576.87 137.01 575.85 136.45C574.82 135.9 573.83 135.29 572.87 134.63C571.91 133.97 570.98 133.26 570.1 132.5C556.8 122.4 543.7 112.1 530.4 101.9C529.24 101.02 528.08 100.16 526.91 99.31C525.73 98.46 524.55 97.62 523.36 96.8C522.16 95.97 520.96 95.16 519.75 94.36C518.54 93.56 517.33 92.77 516.1 92C514 90.7 513.4 89.3 514.3 87.1L516.7 81C524.9 85.5 531.8 91.1 538.8 96.5C549.9 105.1 560.9 114 572 122.5C576.4 125.8 581.1 128.3 585.7 131.3L585.7 131.3ZM615.6 143C617 143.1 618.3 143.1 619.6 143.4C621.35 143.86 623.12 144.26 624.9 144.61C626.67 144.95 628.46 145.24 630.26 145.46C632.06 145.69 633.86 145.85 635.67 145.96C637.48 146.07 639.29 146.11 641.1 146.1L718.5 146L723.6 146L722.9 148.2C722 151.2 720.1 152.1 717 152.1C712.58 152.05 708.17 152.01 703.75 151.99C699.33 151.96 694.92 151.95 690.5 151.95C686.08 151.95 681.67 151.96 677.25 151.99C672.83 152.01 668.42 152.05 664 152.1C653.7 152.2 643.5 153 633.2 152.9C627.5 152.9 621.7 151.8 616 150.9C612.7 150.4 612.4 149.6 613.7 146.6L615.6 143ZM485.3 69.8L482.8 75.7L418.5 75.7C419.5 71.2 421.5 69 425.6 69L484.1 69C484.3 69.1 484.5 69.4 485.3 69.8Z" /><path class="shp7" d="M509.6 76.2C508.7 79.5 507.7 82.5 505.3 85.3L502.1 82.8L505.5 74.6L509.6 76.2L509.6 76.2Z" /><path class="shp11" d="M507.8 86.7L511.8 77.9L515.1 79.4C514.79 80.15 514.48 80.9 514.17 81.65C513.85 82.4 513.55 83.14 513.24 83.89C512.93 84.64 512.62 85.4 512.32 86.15C512.01 86.9 511.7 87.65 511.4 88.4C510.2 87.7 509.1 87.2 507.8 86.7L507.8 86.7Z" /><path class="shp7" d="M500 71.7L503.7 73.3L500.1 81.8C497.9 81.1 496.2 80.6 497.4 78.1L500 71.7L500 71.7Z" /><path class="shp20" d="M485.3 75.6L487.5 69.2L492.3 69.2C491.2 71.8 490.5 74.1 489.2 76.1C488.2 77.7 486.7 77.2 485.3 75.6Z" /><path class="shp5" d="M494.5 79.4L491 78C492.1 75.4 493.1 72.9 494.4 70.5C494.6 70.1 496.3 70.4 498.1 70.4L494.5 79.4Z" /><path class="shp21" d="M586.8 141.8L584.2 140.5L587.9 132.1C590.7 134.9 590.7 134.9 586.8 141.8L586.8 141.8Z" /><path class="shp12" d="M730.4 165.6C729.9 160 733.6 156 735.6 151.4C736.4 157.1 732.4 161 730.4 165.6Z" /><path class="shp22" d="M734.7 147.3L730.3 156.9C728.7 156 728.1 154.9 729 153C729.28 152.44 729.57 151.88 729.85 151.31C730.13 150.75 730.4 150.18 730.68 149.61C730.95 149.05 731.23 148.48 731.5 147.91C731.77 147.34 732.03 146.77 732.3 146.2L734.7 147.3L734.7 147.3Z" /><path class="shp10" d="M591.9 143.9L589.7 142.8L589.7 141.9C590.5 140 591.2 138 592.2 136.1C592.5 135.6 593.5 135.5 594.1 135.2C594.4 135.9 595.1 136.7 594.9 137.2L591.9 143.9L591.9 143.9Z" /><path class="shp11" d="M723.9 152.3C725.9 146.2 725.9 146.2 729.5 146.4C727 152.8 727 152.8 723.9 152.3Z" /><path class="shp23" d="M609.1 150.5C607.4 146.3 609.8 144 611.1 141C611.8 141.6 612.6 142 612.6 142.4C612.6 145.1 611.4 147.5 609.1 150.5Z" /><path class="shp7" d="M603 147.2L606.8 139.4C609.1 142.7 607.1 144.7 606.1 146.7C605.7 147.4 604.7 147.8 603.9 148.3L603 147.2L603 147.2Z" /><path class="shp10" d="M600.4 147.2C597.9 145.5 599.5 144.1 600 143C600.6 141.6 601.5 140.3 602.4 139C602.5 138.9 603.3 139.2 604.2 139.4L600.4 147.2L600.4 147.2ZM598.8 137.5C598.2 140.5 598.4 143.8 594.5 145.6C595.8 139.5 596 139.3 598.8 137.5Z" /><path class="shp24" d="M225.3 370.9C226.7 367.8 229 368.3 231.1 368.3L292.4 368.3C293.9 368.3 295.4 368.5 296.7 369C297.3 369.2 297.5 370.4 298.4 372L227 372C226.6 371.9 226 371.3 225.3 370.9L225.3 370.9Z" /><path class="shp0" d="M225.2 344.4C226.2 343.3 226.7 342.4 227.4 342.1C228.3 341.8 229.4 341.9 230.4 341.9L293.3 341.9C294.5 341.9 295.7 341.8 296.7 342.2C297.3 342.4 297.6 343.5 298.2 344.3C294.1 345.3 230.9 345.5 225.2 344.4L225.2 344.4ZM225.6 352.9C226.2 352.3 226.6 351.4 227.4 351.1C228.3 350.8 229.4 350.9 230.4 350.9L293.3 350.9C294.5 350.9 295.7 350.8 296.7 351.2C297.3 351.4 297.6 352.5 298.5 353.8L226.2 353.8L225.6 352.9L225.6 352.9ZM225.4 362.7C226.1 361.5 226.4 360.3 227.1 360.1C228.1 359.7 229.4 359.8 230.5 359.8L292.9 359.8C294.2 359.8 295.6 359.8 296.9 360.1C297.3 360.2 297.9 361.1 297.9 361.5C297.9 362 297.3 362.7 296.8 362.8C295.9 363 294.8 363 293.8 363L229.9 363C228.6 363.1 227.3 362.9 225.4 362.7L225.4 362.7Z" /><path class="shp25" d="M193.9 22.1C193.9 24 192.5 25 190.5 25C188.4 25 186.8 23.9 187.1 22.4C187.5 20.5 189.2 20.2 190.8 20C192.6 19.9 193.6 20.8 193.9 22.1L193.9 22.1Z" /><path class="shp26" d="M125.1 21.7C128.5 19.8 130.2 19.7 130.9 21.6C131.4 23.1 130.7 24.2 129.3 24.8C127.2 25.7 125.9 24.6 125.1 21.7L125.1 21.7Z" /><path class="shp27" d="M163.3 23C161.5 23.8 160.1 24.7 158.6 24.9C157.8 25 156.5 23.8 156.2 23C156 22.4 157.2 21.2 158 20.6C160.1 19.2 161.4 20.6 163.3 23L163.3 23Z" /><path class="shp28" d="M104.9 343.9C112.3 343.9 117.2 348.5 117.3 355.7C117.4 363.1 112.7 367.8 105.6 368.3C97.9 368.8 92.8 362.1 92.9 356.1C93.1 348.8 97.6 343.9 104.9 343.9L104.9 343.9Z" /><path class="shp29" d="M170.2 145.1C170.3 147.3 169.2 148.8 167.2 148.9C165.3 149.1 163.1 147.2 163.1 145.4C163.1 143.7 164.7 142.1 166.6 141.9C168.9 141.9 170.1 142.9 170.2 145.1Z" /><path class="shp30" d="M191 145.2C191.1 146.9 189.4 148.8 187.7 149C186 149.2 184.1 147.6 184 145.8C183.8 143.4 185 142.1 187.4 142C189.4 142 190.8 143.2 191 145.2Z" /><path class="shp31" d="M75.4 19.9C92.7 18.6 106.2 36.3 106.3 49.9C106.4 67.7 90.4 82.2 75.2 81.5C57.7 80.7 44.3 68 44.2 50.5C44.1 33.6 58.9 18.7 75.4 19.9Z" /><path class="shp32" d="M66.8 40.9C65.1 40.9 63.5 41.1 61.8 40.9C58.9 40.6 57.4 38.3 58.2 35.6C60.5 28 71.6 22.3 79.2 24.9C79.9 25.14 80.58 25.47 81.2 25.88C81.82 26.29 82.39 26.77 82.9 27.32C83.4 27.86 83.84 28.47 84.19 29.13C84.55 29.78 84.82 30.48 85 31.2C86 34.6 85 36.3 81.8 38.1C80.61 38.58 79.4 38.99 78.17 39.35C76.94 39.71 75.7 40.01 74.44 40.24C73.18 40.48 71.91 40.65 70.64 40.76C69.36 40.87 68.08 40.92 66.8 40.9L66.8 40.9Z" /></svg>