<svg xmlns="http://www.w3.org/2000/svg" width="269.5" height="98.8"><linearGradient id="a" x1="426.8" x2="416.7" y1="732.7" y2="714" gradientTransform="translate(-408 -677.5)" gradientUnits="userSpaceOnUse"><stop offset="0" stop-color="#0070b6"/><stop offset="1" stop-color="#1d2c5e"/></linearGradient><path fill="url(#a)" d="M5.5 38.2l12 20.3 4.8-4.5L9.2 34.4z" transform="translate(-5.5 -1.7)"/><path fill="#0071b9" d="M178.6 20.6l-.5 2.7 5.7-1.9-.7-3.3z"/><linearGradient id="b" x1="548.9" x2="561.6" y1="694.6" y2="680.9" gradientTransform="translate(-408 -677.5)" gradientUnits="userSpaceOnUse"><stop offset="0" stop-color="#0070b6"/><stop offset="1" stop-color="#1d2c5e"/></linearGradient><path fill="url(#b)" d="M150.5 4L132 25.2l5.4-1.5 17.6-22z" transform="translate(-5.5 -1.7)"/><path fill="#1d2c5e" d="M244 31.3l4.6-2.4-1.3 11.4zm-28.2 7.3l4 .9L225 37l-4.5-1.7z"/><linearGradient id="c" x1="493.5" x2="491.9" y1="717.3" y2="704.5" gradientTransform="translate(-408 -677.5)" gradientUnits="userSpaceOnUse"><stop offset="0" stop-color="#0070b6"/><stop offset="1" stop-color="#1d2c5e"/></linearGradient><path fill="url(#c)" d="M82 28.2l.7 13.2 5.6-2.2-1.7-13.4z" transform="translate(-5.5 -1.7)"/><linearGradient id="d" x1="632.3" x2="631.7" y1="714.8" y2="703.3" gradientTransform="translate(-408 -677.5)" gradientUnits="userSpaceOnUse"><stop offset="0" stop-color="#125d9e"/><stop offset="1" stop-color="#1d2c5e"/></linearGradient><path fill="url(#d)" d="M225.6 24.3l-4.5 2.5.2 13.5 4.5-2.3 1.5-6.6z" transform="translate(-5.5 -1.7)"/><path fill="#312370" d="M219.6 39.5l-5 44.4 8-1.6 1.5-45.2z"/><path fill="#21386e" d="M229.3 86l.2 6 15.3 4.9 4.6-2.4-15-11.7-15.3-1.3-4.5 2.4zm-56.8-10.6l3.8-2 2.4 4.4 3.5-2 .7 6 22.3 3.9 4.4-2.5L179 64.5l-21.8 3.7-4.2 4z"/><linearGradient id="e" x1="589.9" x2="576.6" y1="698.3" y2="719.5" gradientTransform="translate(-408 -677.5)" gradientUnits="userSpaceOnUse"><stop offset="0" stop-color="#125d9e"/><stop offset="1" stop-color="#1d2c5e"/></linearGradient><path fill="url(#e)" d="M170.8 22.5l-4.4 2.5-8 49 4.4-2.4 7.8-27.5z" transform="translate(-5.5 -1.7)"/><path fill="#1d2c5e" d="M129.8 27.4l-3.6 1.9.3 1.2L135 25l-3.7-4-4.8 2.4z"/><path fill="#21386e" d="M139.5 85.3l-36.3-18 4.5-3.5 36.3 19z"/><path fill="#1d2c5e" d="M106.6 18.3L101 28.7l5.8-1.7 4.2-11.2z"/><linearGradient id="f" x1="471.8" x2="480.9" y1="732.3" y2="750.2" gradientTransform="translate(-413.5 -679.2)" gradientUnits="userSpaceOnUse"><stop offset="0" stop-color="#105fa1"/><stop offset="1" stop-color="#1d2c5e"/></linearGradient><path fill="url(#f)" d="M56.6 61.4L52 64.6s1 5.2 2.2 8.8c1.3 3.6 4.4 6.5 4.4 6.5a16.7 16.7 0 007 4.1c5.1 1.5 11 .5 15.9-2.7 1.3-.8 3-2.1 4.2-3.1-5 3-29-16.8-29-16.8z"/><path fill="#1d2c5e" d="M81.5 38.7l4.2 46.7 17.4-2.5 4.6-2.4-21.5-44.6-4.4 1.5-4.6 2.3z"/><linearGradient id="g" x1="437.5" x2="448" y1="726.2" y2="750.6" gradientTransform="translate(-408 -677.5)" gradientUnits="userSpaceOnUse"><stop offset="0" stop-color="#105fa1"/><stop offset="1" stop-color="#1d2c5e"/></linearGradient><path fill="url(#g)" d="M22 56.6l19.4 43.9 18.3-6 4.5-3-38.1-39.9-4.8 2.9-3.8 4z" transform="translate(-5.5 -1.7)"/><path fill="#1d2c5e" d="M208.4 75.6l.2 2.2a21.4 21.4 0 0011.3-4.3c-.5.2-9 2.4-11.5 2.1m-65-11.2l.6 3.5c3.7-.6 7-2 10-3.8 2-1.2 4.2-3 4.9-3.4-.5.3-15.6 3.7-15.6 3.7z"/><path fill="#ffcb05" d="M41 94.7l-1.5-3.2-18.4-41-.3-.8-.9.3-.5.3-3.3 1.6-1.8-3.1-7.4-12.5-2-3.2 3.3-2c3-2 6.4-3.8 10.1-5.4 7.4-3.1 15-4.8 21.8-4.8 2.3 0 4.5.2 6.5.6 3.5.4 6.6 1.5 9.3 3.2 3.9 2.2 7 5.6 8.7 9.6a18 18 0 01.8 11.2l-.5 2.3 1.9-1.4a22.6 22.6 0 014.3-2.4c2.6-1.1 5.2-1.7 8-1.7 2.5 0 4.9.5 7.1 1.5l1.4.6-.1-1.5-.6-6.7-.1-1-1 .2-3.2.8-.5-11.4 22.8-7.3-.2 8.9 1.7.4 5-9.5 14.9 13.2.6.5.6-.5c2-2 4.4-3.5 7.2-4.6l1.1-.5-.8-1-2.7-3.2 17.1-19.7 9 13.4-13.7 7.3-3 1.7h3.4a21 21 0 0116.2 7.8l1.4 1.7 1 1.2-1.6 1.6-1 1-3.4 3.7-.6.7.6.6 3.3 3 1.2 1 .3-1.6 1.2-7.6.3-2 .3-2 1.9-11.2h17.2l.1-.8.3-2h14.8l3.6 22.7.2 1.5 1.2-1a20.7 20.7 0 014.8-2.5c2.3-.8 4.6-1.3 7-1.3a17 17 0 018 2l1.2.5.1-1.2.3-2.5v-.8l-.7-.2-3-.6-.2-11.8 22.9 5 1.7 8.5h1.8l1.7-7.3 19.1 4.7-19.5 58.7-14-4.4v-6.2l-.8-.1-14-2 .9-7 .2-1.7-1.5.7a19.1 19.1 0 01-9 2.2h-2l-1.2-.2.2 1.2 1 6.2-20.3-3.6-1.1-9.2-.3-3-1.4 2.7-2.3 4.5-4.3-8-1.3-2.3-.4 2.6-1 6.2-17.8-2.8 1.4-8.4.3-2-1.7 1a36 36 0 01-10.2 4 28 28 0 01-4.3.7l-.8.1v16.8L108 64l-1.3-.6v16.3L91 82l-.6-7.1-.2-2-1.4 1.4c-2 2-4.4 3.6-7 4.7a20.2 20.2 0 01-7.8 1.6 16.1 16.1 0 01-16-12c-.7-2.2-.8-4.5-.6-6.8l.3-2.6L56 61a44.3 44.3 0 01-4.1 3.5l-.5.3.1.6 5.3 20.3 1 3.6-3.6 1.1-10 3.2-3.3 1zm4.4-54.4l-1.6.1-.7.2-1 .2.3 1 .2.6 2.9 9.3.3.9.4 1.3 1-1 .7-.6c2.8-2.4 3.8-5 3.2-8.1a4.6 4.6 0 00-2.7-3.3c-.9-.4-2-.6-3-.6zm76.1.3l-1.7 1.7L115 47l-1 1 1.3.5 5 2 1.5.5-.3-1.6a21.5 21.5 0 01-.3-6.2l.2-2.5zm20.4-5.2a7 7 0 00-6 10.4l.3.7.6 1.2.9-1 .5-.6 6.9-7.8.5-.7.9-1-1.2-.4-.8-.3a7 7 0 00-2.6-.5z"/><path fill="#7d7f68" d="M152.4 47a1.1 1.1 0 00-.1.2l.2-.1zm6-5.4l3.4-3.7-1.2 1.2V39l-1 1-3.4 3.7 3.2 3 .6-3.7 1.6 1.4z"/><path fill="#7d7f68" d="M158.4 41.6l3.2 2.8 1.2-7.6-1 1.1zm-42.7 6z"/><path fill="#c7a008" d="M134.7 50.7l.3.3 2.1-1.5a8.6 8.6 0 01-.9-.7c-3-2.8-2.3-9-.3-12.4-5.2 4.2-4.9 10.6-1.2 14.3"/><path fill="#c7a008" d="M160 54.2a29.9 29.9 0 01-12.6 6 24.7 24.7 0 01-3.4.5c-8.3.8-15.2-3-17.8-9.1a13.3 13.3 0 01-.8-2.3 16.3 16.3 0 013.2-14.5c-.2 0-.3.2-.4.3a17 17 0 00-2.6 2.9 16.2 16.2 0 00-1.6 15.7c2.6 6.2 9.6 10 17.8 9.2a24 24 0 003.4-.6c5.2-1.2 9.1-3 12.6-6a27.7 27.7 0 002.4-2.2V54l-.2.2m-58.3-15.7l9.2-13-.4-.3-8.9 12.5zm61-1.7l-1.1 7.6L160 43l-.6 3.6-3.2-2.9 3.4-3.6 1-1.1v.1l1.2-1.2zm-11.3-21.4l3.2-1.4-6-7.5-1.8 2.7zM61.8 34.2c-15-18.2-41.9-8.4-51.5.1l.3.7a63.4 63.4 0 017-3.5 47.3 47.3 0 0126.2-4c2.6.3 5.3 1 7.7 2.7 3.3 1.8 5.9 4.5 7.3 7.8 2.6 6 .3 14-5.8 20.7 7.7-7.1 13-13.9 8.8-24.5zm30.5 21.2l-.3-1c-.8-3-2.6-5.4-5-7a15.2 15.2 0 00-14.5-.9 20 20 0 00-7.2 5.3 19.7 19.7 0 015-3.1 15.2 15.2 0 0114.5.9 12.5 12.5 0 015.3 8c.2 1.2.3 2.3.3 3.5a18.4 18.4 0 01-4.7 11.4 20 20 0 003.3-3.6c2.1-3 3.4-6.5 3.5-10a14.2 14.2 0 00-.2-3.5"/><path fill="#c7a008" d="M77.5 51l2.2-2.2c-2.7 0-3.9 2.5-4 2.7a5.4 5.4 0 011.8-.5m5.2 3.1a3.9 3.9 0 01-.2 2.8c.5-.2 3.6-1.8 2.4-5l-2.2 2.2M70.3 56c0-1.4 2.2-4.6 3-5.7-3.7 2.3-5.2 5.4-5.2 7.8 0 4.2 3.7 7.6 8 7.6 2.1 0 6-1.1 8.5-5.1-1.4.8-4.7 2.9-6.4 2.9-4.4 0-8-3.3-8-7.5m31 3.8v17l2.8.1-.6-19.3zM85.8 27.5V29l12.8-3.8 1 16.3 2-3-.4-16.3zm38.5 5.8l-12-11-1.4 3.2 10.6 10zm-1.8 20.5l-14-4.6-2.1 2.1 14 5.6c1.6 3 4 5.6 7 7.5a23 23 0 009.9 3.2v6.9l2.2 1 .6-10.3-17.6-11.4zm22.6-2a13 13 0 007.2-4.6c-1.3 1.1-7.8 2.5-8.9 2.9l-2 2.2c.9.1 2.5-.1 3.7-.4m-6.3-24c-6.4.9-9.7 6.2-10.2 6.9 2.3-2 5.3-3.5 8.6-4.3 7.9-1.9 14.8.5 19.1 5.8l2.7-2.2c-4.3-5.2-12.3-8-20.2-6.2M160.2 54c.7-.6 2.1-1.3 2.8-2l-8.5-7.7c-.6.8-1.2 2-2 2.8l7.7 6.9zm43.7 20.4c-9-7.3-8.4-23.1-4-28.1l-4-24.7-8.5 1-.4 2.3h6.5l3.4 22.4c-4.3 5-6.5 11.7-5 17.9a16.3 16.3 0 009.6 11.4v.4l2.6.4s.3-2.8-.2-3zm-34.3-49.2l-.4 2.2h9.8l3 15.9 2-2.2-2.2-16.8zM186.4 56l-3.2 8.2.8 2.2 4.5-12.5zM177 51l-2.2 2.2-2.4 14.8 2.3.8zM221 46a11.5 11.5 0 013.2 3.5 12.2 12.2 0 011.5 3.6c1 4.4-.2 9.2-3 13.1l-1 1.1c1.2-1 15.2-11.3 1.5-24.8-15-5-20.7 4.9-21.2 5.5a18.7 18.7 0 015.4-3.2c5-2 10-1.3 13.6 1.2"/><path fill="#c7a008" d="M213.6 47.1l2.2-2.2c-2.7.1-4 1.4-3.9 2l-.4.7c.6-.3 1.7-.5 2-.5m5 3.4c.2.3.2.7.2 1.1a4 4 0 01-.3 1.4c.4-.1 3.6-1.1 2.4-4.7l-2.2 2.2m-7.1 11.3c3 .1 6.3-1.7 8.7-5-6.1 1.2-12.6-9-12-10-2.2 1.7-4.3 5-4.4 7.2-.2 4.2 3.3 7.6 7.7 7.8m33.7 26.7l1.4 1 17.6-52.9-13.2-3-.1 3 10.6 2.4zm-21-60.6l.2 3 14 2.8 5.4 25.6L246 57l-5.2-25.9zm10.9 29.2l-3.9 21.8 2.2.7 3.9-24.7zM53.4 86.8L47 63.1l-2.4 1.7 6 22.7zm-1.7-35.6A49.9 49.9 0 0145 57l-1.2-3.7-2.5-8.2-1.6-5.5-1.6 2 1.6 5.6 2.5 8.1 1.2 3.7c2.6-1.6 6.4-4.8 8.3-8"/><path fill="#7d7f68" d="M144.5 37.1c-2-.8-5-.5-6.6 1.2l-1.3 1.9a7 7 0 016-.9l1.9-2.2zm-94.6 7.4c-.3-1.2-1.5-2.2-2-2.5-1.1-.5-3-.5-4.2-.3l.6 2.2c.5 0 1.4.2 1.9.4.5.3 1.6 1 1.8 2.2.3 1.6.2 3.2-.4 4.4 1.8-1.8 2.7-3.8 2.3-6.4"/><path fill="#3c5aa6" d="M53.1 44.5c-.9-4.9-7.2-7.5-13.4-4.1l1.6 5.5 2.5 8.2 1.2 3.7c4.7-3 9.4-6.7 8.1-13.3zM47 51.9a2434.9 2434.9 0 00-2.8-9.3 6 6 0 013.6.4c.6.2 1.7.9 1.9 2.1.5 2.8-.4 4.8-2.7 6.8z"/><path fill="#3567b0" d="M147.8 36.8A8.6 8.6 0 10137 50.2l11.3-12.8a12.3 12.3 0 00-.6-.6zm-10.7 9c-1-2-.9-4.6.8-6.4a5.5 5.5 0 016-1.4l-6.8 7.8z"/><path fill="#1e2d5f" d="M162.8 35.4l-6.2 6 6 5.3z"/><path fill="#3466af" d="M220.7 48.3l.2 1.1c-.1 2.4-2.4 4.3-5 4.2-2.7-.1-4.8-2.2-4.7-4.5 0-2.3 2-4 4.5-4.2a8 8 0 00-1.4-.1c-4.5-.2-8.2 3-8.3 6.9-.2 4.2 3.2 7.6 7.6 7.8 4.5.2 8.1-3 8.3-7.2a7 7 0 00-1.2-4"/><linearGradient id="h" x1="639.7" x2="655.6" y1="-982.8" y2="-982.8" gradientTransform="matrix(1 0 0 -1 -569.5 -926.7)" gradientUnits="userSpaceOnUse"><stop offset="0" stop-color="#3c5aa6"/><stop offset=".9" stop-color="#2b73b9"/><stop offset="1" stop-color="#2a75bb"/></linearGradient><path fill="url(#h)" d="M85 53.1c0 2.4-2.1 4.3-4.8 4.3-2.7 0-4.8-1.9-4.8-4.3 0-2.2 1.9-4 4.3-4.3a8.2 8.2 0 00-1.4-.1c-4.5 0-8 3.3-8 7.3 0 4.2 3.5 7.5 7.9 7.5 4.5 0 8-3.3 8-7.5a6.7 6.7 0 00-1.3-4L85 53"/><g transform="translate(-5.5 -1.7)"><linearGradient id="i" x1="573.2" x2="838.9" y1="-974.6" y2="-974.6" gradientTransform="matrix(1 0 0 -1 -564 -925)" gradientUnits="userSpaceOnUse"><stop offset="0" stop-color="#3c5aa6"/><stop offset=".9" stop-color="#2b73b9"/><stop offset="1" stop-color="#2a75bb"/></linearGradient><path fill="url(#i)" d="M254 30.6l-2 8.2-1.8-9-24.6-5.5.2 13.7 3.7.8-.3 2.5v-.1a19 19 0 00-15.7-.7 21.6 21.6 0 00-5 2.7l-3.7-23.4h-16.3l-.4 2.7h-17.2l-2 12-1.4-1.7a22 22 0 00-17-8l14.7-8L155 1.8l-18.4 21.2 3.2 3.8a24.2 24.2 0 00-7.5 4.8l-15.8-14-5.5 10.6.2-10.2-24.6 7.9.6 13.2 4.2-1 .6 6.7a20 20 0 00-15.9.1 23.6 23.6 0 00-4.4 2.5c1-4 .7-8-.8-11.7a21 21 0 00-9-10c-2.9-1.8-6.2-3-9.6-3.3-8.6-1.5-18.8 0-28.9 4.3A71.1 71.1 0 0013.1 32l-4 2.5 2.5 4L18.9 51l2.3 3.8 4-2 .6-.2 18.3 41 1.8 3.9 4-1.4L60 93l4.4-1.4L63 87 58 67a44.5 44.5 0 004.2-3.6c-.3 2.5-.1 4.9.5 7.2a17 17 0 009 11 19.6 19.6 0 0016.2 0c2.7-1.2 5.2-2.9 7.2-4.9l.8 8.1 17.3-2.6V66.5l36.4 18V67.1a28.7 28.7 0 004.4-.7c4-1 7.4-2.3 10.5-4.1l-1.6 9.3 19.6 3.1 1.1-7 5.1 9.4 3.2-6 1.1 9.9 22.2 3.9-1.2-7.5c3 .4 6.3 0 9.4-1.2a20 20 0 002.1-1l-.9 8 14.8 2 .1 6.1 15.4 4.9L275 35.7 254 30.6zm-86.8 9l1-1.1-1.2 7.6-3.2-2.9 3.4-3.6zm-13-31.2l5.4 7.3-15.4 7.7-1-1.6 11-13.4zM52.3 64.8l6.2 23.6-10 3.1L28.1 46l-5 2.5L15.7 36c3-1.9 6.2-3.5 9.6-5 9.6-4 18.8-5.3 26.1-4 2.6.3 5.4 1 7.8 2.7 3.3 1.8 5.8 4.5 7.2 7.8 3.6 8.3-2.3 20-14 27.3zM98 60.6c-.1 3.5-1.4 7-3.6 10a19.9 19.9 0 01-8.2 6.7c-8.7 3.7-17.3 0-19.6-8.2-2.2-7.9 3-17.3 11.3-21a15.2 15.2 0 0114.5 1c2.4 1.6 4.2 4 5 7 .2.3.2.7.3 1a14.4 14.4 0 01.3 3.5zm46.9 16.7l-36-18V78l-9.3 1.3-.7-7.8a21 21 0 002.5-16c-.9-3-2.4-5.6-4.5-7.6l-1.3-15.9-4.2 1.1-.2-4 15-4.5 1 15.5 11-15.5L128.9 35l-15 15.8 14.1 5.7c1.6 3 4 5.5 7 7.4A23 23 0 00145 67v10.2zM126.2 51l-5-1.9 4.6-4.5c-.2 2 0 4.2.4 6.4zm39.2 4.8a29.9 29.9 0 01-12.6 6 24.7 24.7 0 01-3.3.5c-8.3.8-15.3-3-17.9-9.1a13.3 13.3 0 01-.8-2.4c-1.2-5.1-.1-9.8 2.4-13.4a16.3 16.3 0 012.6-2.9c2.4-2.2 5.5-3.7 9-4.6 7.9-1.9 14.8.5 19.1 5.8l-15 16a13.2 13.2 0 0011.2-5.2l6 5.3 1.8 1.7a32.3 32.3 0 01-2.5 2.3zm31.9 21.3L194 55.6l-4.6 11.9-7-15-2.7 17.4-11.6-2 1.7-9.7L171 57l3.8-3.9L171 50l3.9-23h11.6l3 15.9 3.2-18.4h8.3l3.5 22.4c-4.4 5-6.6 11.7-5 17.9a16.4 16.4 0 009.5 11.5l.4 2.9-12.2-1.9zm28.7-7a18 18 0 01-4.2 2.2c-3 1.1-5.9 1.3-8.5.8a12.8 12.8 0 01-5-2c-2.3-1.8-4-4.2-4.8-7.3-.8-3.8 0-7.8 2-11.2 1-1.7 2.3-3.4 3.8-4.7a19 19 0 015.8-3.6c5.1-2 10.1-1.3 13.6 1.3A12 12 0 01232 49a12.4 12.4 0 011.4 3.6c1 4.4-.2 9.2-3 13.1a19.5 19.5 0 01-4.4 4.3zm26 20.3l-8.6-2.5-.7-31.4-4.3 24.2-9.3-1.5.7-7c6-5 9.3-13.2 7.5-20.5-.8-3.3-2.5-6-4.8-8.2l.8-8.3-3.5-.9.2-4.4 16 3.2 5.4 25.6 5.5-23 12.2 2.8-17.1 52z"/></g><path d="M253.5 91.8v-2.3h-.9V89h2.2v.4h-1v2.3zm1.6 0v-2.7h.5l.7 2 .1.3.2-.4.6-1.9h.5v2.7h-.4v-2.2l-.8 2.2h-.3l-.8-2.3v2.3z" font-family="Arial" font-size="4" font-weight="400" letter-spacing="0" word-spacing="0"/></svg>